<?xml version="1.0" standalone="no"?>
<!DOCTYPE svg PUBLIC "-//W3C//DTD SVG 1.1//EN" "http://www.w3.org/Graphics/SVG/1.1/DTD/svg11.dtd" >
<svg>
<metadata>
Created by FontForge 20090622 at Sat Apr  9 20:14:24 2016
 By deploy user
Made with yourfonts.com. Copyright &#194;&#169; 2009 Rebecca Simpson. All rights reserved.
</metadata>
<defs>
<font id="OldRubberStamp" horiz-adv-x="1182" >
  <font-face 
    font-family="Old Rubber Stamp"
    font-weight="400"
    font-stretch="normal"
    units-per-em="2048"
    panose-1="3 0 0 0 0 0 0 0 0 0"
    ascent="1638"
    descent="-410"
    x-height="1069"
    cap-height="1700"
    bbox="60 -754 2528 2016"
    underline-thickness="150"
    underline-position="-142"
    unicode-range="U+0020-U+20AC"
  />
<missing-glyph horiz-adv-x="1384" 
d="M60 0v1728h1244v-1728h-1244zM140 80h1084v1568h-1084v-1568z" />
    <glyph glyph-name=".notdef" horiz-adv-x="1384" 
d="M60 0v1728h1244v-1728h-1244zM140 80h1084v1568h-1084v-1568z" />
    <glyph glyph-name=".null" horiz-adv-x="0" 
 />
    <glyph glyph-name="nonmarkingreturn" horiz-adv-x="550" 
 />
    <glyph glyph-name="space" unicode=" " horiz-adv-x="663" 
 />
    <glyph glyph-name="space" unicode="&#xa0;" horiz-adv-x="663" 
 />
    <glyph glyph-name="exclam" unicode="!" horiz-adv-x="455" 
d="M279 1714q55 -21 55 -41v-137l14 -96q-55 -21 -55 -41q22 0 55 -28q-14 -125 -55 -178q28 -50 28 -110v-137q0 -31 13 -55q-13 -26 -13 -41h-124q-27 0 -41 178q14 24 14 55l-14 28q14 24 14 54v14h-41v41q54 0 54 41q-54 14 -54 83l54 68q-27 0 -27 28v27l14 28
q-21 0 -69 123v27q0 47 178 69zM156 823h82q22 0 55 -55v-14l-27 -41q0 -20 41 -41l-14 -69l28 -55l-14 -68q14 -76 14 -110l-28 -14q-110 0 -110 83q0 31 14 55q-14 24 -14 54v14q0 31 14 55q-14 27 -14 41q0 41 42 41v28q-69 0 -69 27v69zM225 288h13q137 -76 137 -123
q-18 -69 -68 -69v-14q68 0 68 -68l-68 -41h-28q-68 0 -68 41h-96q-41 0 -41 96q13 0 13 13q-27 45 -27 69z" />
    <glyph glyph-name="quotedbl" unicode="&#x22;" horiz-adv-x="455" 
d="M87 1988q14 0 14 -14l28 14h41q27 0 27 -41q-27 -87 -27 -110l13 -27l-13 -28l13 -54q-20 -55 -41 -55h-41q-27 0 -27 27q0 46 13 69q-27 103 -27 192q4 27 27 27zM266 1988q13 0 13 -14l28 14h41q27 -4 27 -27q-27 -95 -27 -165v-14l14 -68q-28 0 -28 -41h-55
q-27 0 -27 27v14q0 31 14 55q-28 56 -28 82h14l-14 27v83q5 27 28 27z" />
    <glyph glyph-name="numbersign" unicode="#" horiz-adv-x="1771" 
d="M691 1851h27q69 -35 69 -110v-27l-14 -28l27 -13h14q0 46 96 68h14l14 -27q-42 -274 -96 -274q-55 -89 -55 -137v-28h13l69 41l27 -13q0 -220 -109 -220q-22 0 -69 -260l28 -14h137v-41q-165 -54 -165 -82v-14h41q97 27 110 27q45 -27 69 -27v14q-42 45 -42 68
q69 57 69 302v27h-27v69q0 41 82 192q68 0 68 27v55l-13 96q50 68 68 68v28q-55 0 -55 96v27q5 28 28 28h41q27 0 41 -83h41l41 28h14q27 -4 27 -28l-13 -27l27 -14q-27 -45 -27 -82q0 -15 13 -41q-27 -165 -68 -219h27q0 31 55 54h28l41 -27q14 0 41 14l82 -14q4 27 28 27
q60 0 137 -96q0 -167 -124 -219q0 -14 -41 -14h-55q-96 0 -151 83h-27q-59 0 -69 -192v-55l-13 -28q13 0 13 -13l28 13h329q20 0 41 -41v-233q0 -41 -110 -55q-274 9 -274 28v13h-27q0 -109 -83 -109l-13 -28v-55q0 -24 41 -123q-22 -260 -69 -260q-27 0 -27 27l-69 -14h-13
v28h-28l-41 -28h-27v28h-83v55q0 37 28 82l-14 27q58 100 82 357q-18 82 -41 82h-27l-41 -27h-69q-17 -151 -55 -151h-13l-28 13v-27q14 -171 14 -192q-28 0 -28 41h-13v-13l27 -69q-41 -100 -41 -123h-27q-28 0 -28 68h-14l-68 -55h-41q-35 0 -41 55q0 173 96 398
q0 107 -83 151q-88 0 -164 -69q-28 0 -28 27v55q83 58 83 96h13l-13 28q4 27 27 27q31 0 55 -14q24 14 55 14l55 -14q82 230 82 261l-41 27q0 -27 -28 -27q-46 0 -109 41q-41 -27 -165 -41q-9 68 -68 68l-14 165l27 14q27 -14 41 -14q0 14 14 14l-14 27q5 28 28 28
q123 -7 123 -83q69 0 69 -96h13l151 69q8 123 55 123q27 -13 41 -13v41l-96 68v14q28 33 28 55v41q27 0 27 27l-14 69q124 16 124 41q-63 27 -69 55v14q5 27 28 27zM129 754h27v-55q-36 -67 -55 -68h-41v55q0 18 69 68z" />
    <glyph glyph-name="dollar" unicode="$" horiz-adv-x="1443" 
d="M608 1878l83 -13q74 13 123 13q41 -66 41 -178v-41h83q167 -27 246 -96l96 -68l-13 -96q13 0 68 -69v-27q-48 -83 -123 -83h-83q-71 0 -82 41v28q0 44 137 68v14h-151q-33 41 -164 55q-14 -27 -14 -41q28 -88 28 -110v-233q46 -18 82 -55q26 14 41 14q41 -28 96 -28v-54
l-14 -28h14l137 14l14 -27v-138q0 -54 82 -137l-14 -68q32 0 42 -69q-69 -21 -69 -96q0 -85 -96 -96q-137 0 -137 151q-93 142 -123 288l-69 14v-55q82 0 82 -96v-14q0 -65 -82 -110v-13q0 -50 82 -233v-192q0 -60 -82 -192v-14h-69l-68 -14q-59 110 -165 110l-13 137v110
h-14q-205 0 -453 151v13q0 38 28 83q-28 0 -28 27v14q0 41 14 41l-14 68v55q0 20 42 41h68q105 0 165 -192q-27 -13 -41 -13v-14q123 0 123 -55v-27h27q124 0 124 123l27 124q0 27 -41 233h-110q-110 0 -178 109l-27 -13h-55q-41 0 -55 123q50 27 110 27q55 -22 55 -82
q80 25 137 82q-165 35 -165 55q14 0 14 14l-28 14h-13q-98 -83 -151 -83h-14q-34 0 -41 55q6 206 27 206q45 27 83 27l-14 28v27q40 30 82 137q181 69 206 69h14q49 0 109 -55l-13 69v164q0 82 54 82zM403 1344v-14q55 0 96 -137q41 0 41 -55h41q-14 253 -14 370v28z" />
    <glyph glyph-name="percent" unicode="%" horiz-adv-x="1566" 
d="M1143 1645q0 -16 137 -82l14 -27v-14q0 -24 -110 -247q-13 -26 -13 -41h-83v-14l28 -55q-36 -93 -165 -178q0 -85 -164 -356v-28h-55q-124 65 -124 83q69 176 165 329q27 0 27 27l-27 41v28q82 0 82 27l-13 82q0 59 123 83l-14 27v27l41 55q-13 27 -13 41q27 45 27 83
q0 14 -14 41q0 62 151 68zM266 1289q150 -60 150 -137q-18 -69 -68 -69v-14q68 -3 68 -41v-27q0 -22 -95 -69q-83 9 -83 55h-137q0 22 -27 55v41q4 28 27 28l-41 68q142 110 206 110zM1349 713l123 -96q14 -27 14 -41q-27 -82 -69 -82v-14q69 0 69 -69q-58 -55 -110 -55
q-20 0 -137 55h-14q-26 -13 -41 -13q-55 77 -55 109q27 14 42 14q-28 45 -28 82q0 36 206 110zM554 644h13q110 0 110 -137q0 -31 -69 -41l14 -68v-14q-37 -45 -68 -165q-29 0 -96 -164l-28 -14h-14q-71 48 -95 110q103 207 191 329h69v14q-69 53 -69 82q18 68 42 68z" />
    <glyph glyph-name="ampersand" unicode="&#x26;" horiz-adv-x="1470" 
d="M362 1728l13 -28v-55q-60 0 -137 -82h-27q-28 0 -28 27v14q42 0 42 69h41v-28h27q0 83 55 83h14zM663 1714h110v-28l-14 -27q151 0 151 -41q0 -28 41 -82q0 -15 14 -41l-14 -28q14 -24 14 -55l-27 -13h-28l-41 27h-14v-96h28v27h68q0 -65 55 -96q14 -24 14 -54l-55 -28
l14 -27q0 -52 -124 -83q-20 -54 -41 -54q-75 13 -110 13v41q0 20 69 42l-14 27q18 63 55 69l-14 68v137l14 96q-46 0 -55 82q-96 0 -96 96v28zM183 1522q83 -50 83 -69v-27q0 -27 -83 -41q40 -69 83 -69v-27l-28 -41v-14q75 0 96 -69v-41l-27 -41h27l69 14l82 -55
q0 -14 69 -14v-41h-28v-27q89 27 124 27h13v-41h-27v-14q45 -45 68 -123q165 -66 165 -165q82 -28 82 -109h14q27 0 55 109l82 124q27 -4 27 -28v-13l-13 -28q68 -4 68 -41q0 -14 -13 -14l13 -54q0 -107 -82 -234q0 -41 -27 -95h13q36 67 55 68h41v-41l-27 -41l27 -14
q0 20 41 41h28q27 -4 27 -27l-13 -96h82q20 0 41 -41v-41q0 -19 -69 -69h-41q-33 27 -55 27q-14 0 -41 -13q-178 18 -178 109h-27q-151 -37 -151 -54q0 -55 -28 -55l-68 13q0 -27 -137 -41q0 -13 -41 -27q-63 26 -69 55v55q0 19 82 82h69l68 -41q2 29 83 68q27 83 82 83v27
q-45 45 -69 123h-13v41l82 14l-14 137q-27 -4 -27 -27v-69q-48 -13 -55 -13q-123 61 -123 192q-100 30 -124 82q-68 0 -68 96q19 0 41 41v27h-206q0 108 -55 124q0 -83 -55 -83q-12 99 -82 151v28h28v27l-28 41v151q0 34 55 41l-14 69v14q0 27 41 27zM334 891h14
q21 0 55 -55v-54q0 -20 -96 -96q0 -28 -55 -28v-82q41 0 41 -28q0 -27 -41 -27v-27q41 0 41 -28q0 -27 -41 -27v-41q46 -41 96 -179q50 0 110 -164q-42 -45 -42 -69h-27q-86 0 -206 110q0 36 -123 123v42q0 33 27 150q-13 27 -13 41l13 28l-13 82v41q46 0 55 83
q77 0 178 137q27 0 27 68z" />
    <glyph glyph-name="quotesingle" unicode="'" horiz-adv-x="360" 
d="M156 2002h14q109 -53 109 -124q-20 -54 -41 -54h-13q-69 0 -69 27l-27 -14q-42 0 -42 137h55v-41h28l-14 28v41zM183 1810h28q20 0 41 -41v-55q-95 -124 -123 -124q-69 23 -69 83q69 22 69 68q54 0 54 69z" />
    <glyph glyph-name="parenleft" unicode="(" horiz-adv-x="633" 
d="M471 1755h55q28 -4 28 -27v-14q0 -28 -28 -28q-27 0 -27 55h-28q0 -31 14 -55q-41 -54 -41 -123h-41v41h-28q0 -55 -41 -55v-27q69 0 69 -27v-28q-69 0 -69 -27q-13 -53 -13 -110q21 0 54 -55v-68q0 -20 -68 -42q0 -32 -110 -41l69 -82q0 21 55 55h13q0 -28 14 -28
l-14 -96q0 -34 28 -123q-8 -137 -28 -137q-27 -4 -27 -27q26 -14 41 -14v-41l-14 -28l-96 14h-27v-27h82q28 -5 28 -28v-41q0 -9 -69 -69l14 -27q68 41 109 41l28 -41v-27q0 -28 -82 -55v-69l54 55h55v-14l-41 -82q0 -60 123 -123q-16 -110 -54 -110h-42q-137 46 -137 137
q-12 48 -137 110v14q4 68 28 68q-14 55 -69 55v137l14 96q-55 0 -55 41q0 274 82 274v55q-68 0 -68 69v13q0 28 82 28v27q-82 0 -82 55q9 14 123 14l-82 55v27l82 55q-27 0 -27 27v28q0 14 13 14l-13 27v14q0 32 96 41v27q-41 0 -41 28v27h41v82q37 0 123 96z" />
    <glyph glyph-name="parenright" unicode=")" horiz-adv-x="633" 
d="M142 1769q86 -17 192 -124h14v-82h55v-14q0 -41 -55 -41v-27l96 -14v-41q0 -14 -14 -14q14 -26 14 -41l-14 -68q69 0 69 -28v-27l-83 -55q124 0 124 -28v-13q0 -28 -69 -28v-27q69 0 69 -28v-54q0 -28 -69 -28v-55q50 0 83 -82q0 -14 -14 -14l14 -96v-109l-55 -14
q17 -153 27 -192l-68 -82l13 -82q0 -33 -109 -69q-37 -165 -124 -165l-41 -27h-55q0 21 -27 55v55q98 67 110 109v28l-28 41v41h41l55 -41v55q-41 0 -82 55v27q0 20 41 41h27q54 -41 83 -41v27l-69 69l14 69h96v27h-28l-96 -14l-13 28v13l41 55q-20 0 -41 41v14q0 14 13 14
l-13 27q13 179 13 288l28 14l55 -55q0 13 54 82q-86 0 -178 96v14q0 48 55 96v69q0 82 -82 82v14q0 27 82 27q-51 82 -68 82q-14 -26 -14 -41h-41v69l-28 41v68h-27q0 -55 -28 -55q-27 0 -27 28v14q0 18 82 41z" />
    <glyph glyph-name="asterisk" unicode="*" horiz-adv-x="510" 
d="M238 1961q41 0 41 -69h28q50 41 96 41l13 -27q0 -19 -68 -110q0 -29 82 -110v-13q-14 -41 -82 -41q-27 62 -55 68q0 -96 -27 -96h-28q-41 14 -41 82h-14q0 -31 -54 -68h-14q-55 14 -55 68q29 0 82 96q-82 67 -82 138h55q61 -55 68 -55h28v68q4 28 27 28z" />
    <glyph glyph-name="plus" unicode="+" horiz-adv-x="1745" 
d="M787 1659q178 -10 178 -69v-191q0 -31 14 -55l-28 -83q14 -24 14 -54q0 -83 -69 -83v-27h69q55 -30 55 -124l41 28q68 0 68 -28l28 14h14l137 -14q4 69 41 69q15 0 68 -82q9 0 69 68h96q82 -69 82 -109l-14 -28q14 -24 14 -55q-41 -13 -41 -82v-41q-27 0 -27 -14
q-235 14 -261 83q-47 -28 -137 -42v14l-55 -27l-55 27q-75 -14 -109 -14v-41q4 -27 27 -27l-27 -261q68 -4 68 -41q0 -15 -82 -68q68 -59 68 -110v-55q0 -17 -95 -82h-83q-37 27 -137 55q-14 24 -14 55q0 114 69 219q-27 178 -41 178l14 69v164q0 28 -28 28q0 -20 -41 -41
h-14l-55 41h-13l-55 -41h-55q-14 0 -14 13q-100 -41 -123 -41l-96 14q-94 -14 -151 -14q-26 14 -41 14v14q0 178 96 178h219l83 -14q20 14 82 14q55 -14 55 -82q27 0 41 109l96 28q55 -11 55 -110q23 0 41 68l-41 69v14l41 55q-55 69 -55 82l14 68q-28 90 -28 124l14 82
q-14 75 -14 151q14 41 28 41z" />
    <glyph glyph-name="comma" unicode="," horiz-adv-x="373" 
d="M142 192h14q96 0 137 -110q-27 -45 -27 -82h-69l-41 27q-27 -13 -41 -13l-41 82v82h41l27 -13v27zM225 -27q26 -14 41 -14v-96q-104 -137 -124 -137h-27q-22 0 -55 55v13q69 51 69 69q0 35 54 55q7 55 42 55z" />
    <glyph glyph-name="hyphen" unicode="-" horiz-adv-x="1333" 
d="M142 891h55q165 0 165 -41h54q42 0 110 -41q41 27 261 55q96 -10 96 -28l315 28q55 -21 55 -41v-206q-27 0 -96 -27q-94 13 -151 13h-14l-96 -27q-26 0 -96 27q-10 0 -82 -13q-131 13 -151 27q-28 -82 -55 -82h-27q-53 82 -69 82q-46 0 -123 -69h-137q-11 0 -96 96v96
q66 151 82 151z" />
    <glyph glyph-name="period" unicode="." horiz-adv-x="414" 
d="M225 261h13q96 -47 96 -69q0 -178 -164 -178q0 -14 -28 -14q-82 44 -82 110q0 13 14 13l-14 28v27q0 18 137 55q4 28 28 28z" />
    <glyph glyph-name="slash" unicode="/" 
d="M965 1824l82 -14h41l14 -69q-130 -164 -151 -164q-82 -122 -82 -288q-50 -55 -69 -55v-14l28 -41q0 -26 -41 -110h-28l-55 42v-55q55 -14 55 -55q0 -18 -68 -69v-68q-52 0 -124 -82v-14l28 -41v-14h-14q-27 14 -41 14v-55q55 0 55 -28v-27q0 -96 -83 -96q28 -45 28 -69
l-96 -150q-55 -9 -55 -69h-27l-41 28v-96l27 13q27 -4 27 -27v-41q-41 0 -41 -28v-13l55 -69v-14l-68 14h-55l-41 -27q-75 13 -124 13h-14q0 23 -27 41q17 138 55 138l41 -28l27 41q0 31 -13 55q13 24 13 55v41h42v82q33 96 68 96h28v14l-28 41v14l28 41v69q41 0 68 123
q44 69 55 69l-14 27v14q0 21 55 54q55 -27 55 -41q26 14 41 14v41h-14q-26 -14 -41 -14q0 10 -41 42q0 101 96 205l-14 28v41q36 0 69 96h14l27 -14l14 28q-20 0 -41 41q23 109 109 109q7 0 55 14v27q-82 0 -82 42q26 62 55 68h27l41 -27q0 41 55 41v14q-54 27 -82 27v14
q0 24 137 55z" />
    <glyph glyph-name="zero" unicode="0" 
d="M691 1714h13q101 0 179 -110h27l-14 -68q24 -14 55 -14v-27q-55 -7 -55 -42q96 -9 96 -41v-13q0 -14 -13 -14l13 -28v-27l-27 -41q82 -18 82 -41v-41l-82 -14l14 -28l27 14h14q68 -3 68 -27q0 -41 -68 -41v-28q68 0 68 -27v-41q0 -42 -68 -42v-27q68 -32 68 -178l14 -124
q-24 -13 -55 -13l14 -96v-110l-55 -55l14 -96q-137 -68 -137 -137q0 -59 -165 -110l-41 55v55q96 58 96 110q-14 75 -14 109h28l55 -41l13 28q0 27 -82 55v41q0 34 55 41l68 -41h14v27l-55 55v55q5 27 28 27l68 -13v41l-27 -14h-82q-28 0 -28 27l41 55v14h-27q0 22 -14 165
q14 41 28 41l-14 27q0 14 14 14l-14 27v69q4 27 27 27q28 0 28 -41h41q0 24 41 69q-80 0 -165 82v55q33 38 55 109q0 83 -82 83v27q0 28 69 28q-42 44 -42 68h-27v-27h-41q0 64 -28 96v68h-27q0 -55 -27 -55q-28 0 -28 28v27zM279 1632q0 -31 83 -124v-13l-41 -96h-55v-28
l27 -41v-137l-41 -55l14 -55q-14 -26 -14 -41q14 -27 14 -41q-14 -27 -14 -41t14 -14q0 -164 -55 -164v-14q0 -28 82 -28v-68q0 -31 -68 -41l41 -69q0 -41 -41 -41v-14q82 -55 82 -82l-14 -27l110 -206q34 0 68 -27l-13 -55l13 -69l-41 -27q-85 0 -109 96q-55 13 -55 55
q13 26 13 41h-82q-65 125 -82 205l14 69q-28 0 -28 27v41h96v14l-27 41q0 28 41 28q0 18 -69 68h-13v-27h-42v96q-27 33 -27 55q0 62 14 315q27 0 27 27v138q0 27 69 27v14q-41 50 -41 96h82v13q-14 18 -14 69q55 0 55 27v14q-41 0 -41 27q0 32 68 42z" />
    <glyph glyph-name="one" unicode="1" horiz-adv-x="867" 
d="M471 1728h14q27 -5 27 -28v-82q0 -28 -54 -28v-13l13 -28l28 14q27 -4 27 -27v-96l-55 -14v-69q69 0 69 -27v-14l-41 -55q31 0 41 -68q-100 -34 -137 -69l13 -27l-27 -41v-14h14l27 14q27 -14 41 -14v-14q0 -31 -68 -41q70 -68 109 -68v-28q28 -232 28 -260h-14l14 -28
v-55q0 -24 -124 -41v-82q121 69 151 69l28 -42v-27q0 -27 -55 -27v-179q41 0 41 -27v-27q0 -42 -55 -42v-27h14q26 14 41 14q0 -14 14 -14q55 69 123 69h28q32 0 41 -110l-124 -69l-68 41h-192l-69 14q0 -30 -123 -41q-69 18 -69 41v41q29 55 69 55l96 -14q0 32 68 42
l-54 54v28q45 0 68 -14l82 14v27q0 28 -27 28h-14l-41 -28h-14q-13 0 -68 69l41 55v27q-41 0 -41 27q14 75 14 124q-28 0 -28 27v14l28 41v14q-42 0 -42 27v14q69 10 69 41q-31 0 -41 165h82q0 27 -27 27h-69v14q41 34 55 164h27v14q-54 0 -54 41l13 28q0 12 -55 82v41
q0 27 42 27q0 28 -42 28v41h28v27l-137 -13l-28 13q0 -27 -27 -27h-14q-20 0 -41 41v28q99 41 123 41h14l28 -14q0 58 123 82q0 15 123 124z" />
    <glyph glyph-name="two" unicode="2" horiz-adv-x="1128" 
d="M444 1741h27l14 -55h27q0 42 42 42l68 -42h28q0 42 27 42h41q69 -27 69 -151h27q0 82 28 82h13q61 -55 69 -55l-14 -68v-41q-55 0 -55 -28q24 -14 55 -14v-41q0 -101 41 -192q-74 -136 -96 -137l14 -68l-69 -110h-41v82q-41 0 -41 28v27h69v41q0 37 -69 41v69h55l41 -28
q20 0 41 42v68l-41 -27h-96v55q0 27 41 27q-47 45 -68 110q-27 2 -83 137l-27 13h-14q-46 0 -96 -41h-13l-42 28q0 -41 -27 -41l-27 13q-27 -13 -41 -13h-42q0 -28 -96 -96h-41q-27 0 -27 27v96q23 0 123 110q83 0 83 41h41q0 -41 27 -41q36 67 55 68zM430 480h14
q20 0 41 -41q0 -41 -123 -69q-28 0 -28 28v13q0 22 96 69zM979 398q68 -19 68 -96q-44 -28 -68 -28l-55 69v13q0 21 55 42zM348 343l14 -28v-13l-28 -41q0 -31 96 -55q186 17 220 27l68 -41v14l-27 41l27 41q288 -11 288 -69v-68q-77 -50 -82 -96l-28 -14h-13l-55 55
l-55 -55h-41q-28 0 -28 41h-27q0 -55 -69 -55h-96q-109 14 -109 110h-28v-82q0 -31 -150 -41q-11 0 -83 13q-24 -13 -55 -13l-27 41q14 55 82 55l-27 41q171 192 233 192z" />
    <glyph glyph-name="three" unicode="3" horiz-adv-x="976" 
d="M293 1741q94 -13 151 -13h41q27 -5 27 -28l28 14h41q137 -17 137 -55q-14 -72 -14 -82v-14h14q7 55 41 55h14q27 -4 27 -28v-27q0 -27 -41 -27v-14q55 -7 55 -41v-14q-96 -71 -96 -137h-41l-27 14l13 68l-68 83q0 82 -165 109v41h28v14h-28q-48 -82 -68 -82h-14
q-69 0 -69 41q-76 -96 -96 -96q-73 0 -96 55v13q0 37 206 151zM581 1193q27 -4 27 -28q-54 -88 -54 -137v-13q27 -35 27 -69h41v14q-14 26 -14 41h28q32 -28 96 -28v-27l-28 -41q40 0 110 -41v-55q-55 0 -55 -27q77 -42 110 -42q0 -49 14 -123q-14 -27 -14 -41
q27 -45 27 -69q-68 -41 -68 -109h-28l14 -69q-145 -132 -219 -233q-38 0 -55 -41q-85 -18 -165 -55q-288 28 -288 110q-27 117 -27 151l27 13q147 0 192 -82q5 27 28 27h192l27 -13q0 13 14 13l-14 69v41q53 14 110 14l-14 27v14q0 27 41 27v28q0 27 -41 27v82q55 0 55 96
l-27 14h-69v41h55v28q-82 0 -82 27v14l13 27q-26 14 -41 14v41l14 28l-28 13h-123q-96 38 -96 55v41q37 0 288 206z" />
    <glyph glyph-name="four" unicode="4" horiz-adv-x="1388" 
d="M855 1741h69q41 -10 68 -96l-13 -27l13 -55l-54 -68q68 -55 68 -138q0 -34 -68 -82q0 -55 -69 -55v-68l-41 -55v-41h14q8 0 82 82q41 0 41 -55q0 -53 -69 -110q48 0 96 -137q69 -41 96 -41q89 28 124 28h27q69 0 69 -261l-28 -14h-13l-192 42v-28h-28q-8 0 -68 55v-14
q27 -97 27 -109l-41 -55q14 -72 14 -83q-14 -26 -14 -41q27 -4 27 -27v-14q0 -31 -13 -55q27 -45 27 -82v-14q0 -105 -151 -123q0 -14 -13 -14h-42q-15 0 -68 83q-41 0 -41 27v55q41 0 96 14q0 -14 13 -14l14 27q-74 69 -123 69l27 260q-64 74 -151 124l-13 -69h-42l-96 -14
q-68 66 -68 124h-27l13 -69v-27q0 -28 -27 -28h-28l-41 28h-13l-42 -28h-27q-96 57 -96 138v13q41 34 55 179q53 82 68 82h42q86 -34 109 -124l82 -13l28 13q233 -36 233 -82v-14h27l-13 96v14q25 50 82 110q-55 0 -55 41v14q0 8 69 68v96q-41 0 -41 28v27h13l69 -14v69h-14
l-27 -14q-55 11 -55 28q0 57 27 137l-55 41h-13l13 -96q-20 0 -96 -151h-68q0 55 -41 55q0 -55 -28 -55h-13q-28 0 -28 27v14q55 64 55 96q36 91 110 151q31 82 109 82q0 67 83 96z" />
    <glyph glyph-name="five" unicode="5" horiz-adv-x="949" 
d="M746 1741h13q110 0 110 -109q-41 -206 -55 -206q-123 27 -178 27h-82q0 -41 -28 -41h-41q0 55 -69 55q-13 -24 -13 -55h-28q-102 0 -123 178v28q4 27 27 27h42l68 -13q27 33 27 54h55q41 0 41 -13l69 13h96zM211 1399q55 -21 55 -42v-82q0 -41 -69 -41v-14q82 -27 82 -68
v-41q61 0 96 -69q24 0 69 -41v55q-55 0 -55 27v14q4 27 27 27h14q37 -38 124 -68q13 -27 13 -41h69q28 0 123 -151q47 0 69 -302q14 0 14 -55q-45 -151 -83 -151l14 -68v-14q-96 -66 -96 -123q-127 -69 -165 -69q-45 28 -82 28q-27 -50 -27 -124h-206q-113 0 -137 220v55
q0 20 55 41q102 -26 233 -137v54h82q73 38 124 233l-14 124l27 14q56 -28 83 -28q0 28 -96 55v69q-55 0 -55 27v69q7 0 55 13q26 -13 41 -13q0 27 -28 27l-96 -14l-27 41l-28 -13h-27q0 55 -137 150q-24 -13 -55 -13q-82 69 -82 178q36 82 68 82l-27 41v55q0 69 55 83z" />
    <glyph glyph-name="six" unicode="6" horiz-adv-x="1196" 
d="M746 1755q150 0 150 -110l-109 -96h-28l-41 28q0 -69 -27 -69q-21 0 -165 -192h-68l27 -41v-14q0 -27 -27 -27l-42 27l-13 -27q0 -27 41 -27v-55q-31 0 -41 -69q-20 0 -41 -41v-41l13 -69q-27 -4 -27 -27q14 -27 14 -41q-28 -4 -28 -28l-68 14h-55q-28 -4 -28 -27
q14 0 14 -14q-14 0 -14 -14l28 14h27q68 -36 69 -55v-14l-14 -27q30 0 55 -110q-69 -55 -96 -55v-41l69 14q41 0 54 -178q-27 -5 -27 -28q77 -50 82 -96l110 -54q45 27 82 27q22 0 55 -55v-55q0 -19 -41 -41h-69v-14h-109q-69 0 -220 165q0 23 -68 69q0 42 -69 150l-14 28
q14 24 14 55l69 -14l-28 41l28 41q-55 0 -96 69q13 26 13 41q-27 45 -27 82v55q23 32 55 219l96 14v14l-41 55v27q0 27 41 27q26 -13 41 -13v41l-27 41l109 137l96 -14v14q-68 43 -68 82q34 0 164 137q39 0 69 42v13h96v69q0 34 55 41zM732 1056q78 0 164 -110
q86 0 165 -192v-82l-14 -69q28 -4 28 -27l-55 -69v-13q73 0 96 -55v-69q-96 -117 -96 -164h-41q-141 55 -151 55q-28 33 -28 54v41q-27 0 -27 28v14q27 54 41 54q-27 45 -27 83v13l41 55v14q0 7 -82 96v14l13 27q-68 40 -68 82l13 28q-41 68 -41 109q0 60 69 83zM746 274h27
q59 -62 165 -68l13 -28v-13q-41 -61 -41 -96h-178q-31 0 -41 68q0 55 55 82v55z" />
    <glyph glyph-name="seven" unicode="7" horiz-adv-x="977" 
d="M211 1810q68 -82 164 -151q4 -69 41 -69v28l-13 68q63 42 109 42q5 -28 28 -28q0 16 110 55q246 0 246 -137v-69q-41 -38 -54 -192q-63 -82 -96 -82q-83 33 -83 82q28 45 28 83h-28q-56 0 -109 -14l-83 14l-27 -14q-69 22 -69 96h-13q0 -31 -55 -41q0 -20 -41 -41
q-24 13 -55 13v-13l14 -96q-62 -55 -96 -55q-63 26 -69 55v137q0 22 69 164q-14 27 -14 41q21 0 55 124h41zM554 1097q78 0 150 -151q0 -21 -54 -151q0 -68 -42 -68v-110q-22 0 -68 -69q27 -54 27 -96l-55 -68q28 -45 28 -69q0 -20 -28 -123q14 -27 14 -41q0 -19 -110 -110
l-27 -55q-96 10 -96 28l-27 -14q-124 81 -124 178q28 71 28 110q-14 26 -14 41q82 18 82 55q-13 26 -13 41q8 77 96 206q-14 26 -14 41q32 0 96 178h27l28 -14l13 28v14l-13 95q80 124 96 124z" />
    <glyph glyph-name="eight" unicode="8" horiz-adv-x="1141" 
d="M718 1782q27 -13 41 -13q0 13 14 13l14 -27q-14 -27 -14 -41h151l14 -55q-14 0 -14 -14q55 -22 55 -96v-68q0 -28 -28 -28h-13l-55 42h-14v-110h14l41 27h27q17 0 55 -96h27v-41q-71 -137 -95 -137q-64 0 -110 -69h-82q-28 0 -28 28v14q0 37 69 41v68q0 28 41 28l-14 96
v27q0 31 14 55q-14 27 -14 41v110l-55 82q-82 0 -82 110q27 13 41 13zM252 1741q0 -41 41 -41q-26 -62 -55 -68h-55v41q55 0 55 68h14zM142 1577h41q20 0 83 -82q0 -16 -83 -69q69 -56 69 -69v-27l-27 -41q78 -17 109 -82v-28l-41 -55h55l41 28h14q0 -41 82 -55
q0 -28 69 -28v-41h-28v-27h14l123 41l14 -27l-41 -55q41 0 41 -41h27q0 41 69 41q47 0 233 -247q27 -90 55 -315q-20 0 -41 -42v-95h-28l28 -83q-21 -55 -41 -55q-220 68 -220 288q28 69 41 69l-41 55q0 57 28 137q-69 0 -110 68q0 20 69 42q-28 44 -28 68h-27
q0 -37 -69 -68h-14q-30 24 -123 41q0 21 -27 55v13l54 69v13h-219q0 60 -41 138h-27v-83h-55q-8 124 -69 124v27l28 41l-28 41v179q0 20 55 41l-14 27v69zM362 932q0 -20 41 -54v-55q-38 -83 -110 -83l14 -27q0 -27 -28 -27q-26 13 -41 13v-68l41 -55v-28h-41v-27
q41 0 41 -27v-28q-41 0 -41 -27q45 -52 69 -124q27 -4 27 -27v-14l-27 -41q109 0 109 -96q42 0 42 -68v-14q0 -14 -69 -69q-64 14 -178 96q-66 93 -151 151q0 197 27 288q-27 55 -27 96q46 0 69 96q74 0 205 178q0 41 28 41z" />
    <glyph glyph-name="nine" unicode="9" horiz-adv-x="1141" 
d="M334 1741h41q96 -65 96 -82v-14q0 -16 -96 -68h-68q0 -36 -55 -82q14 0 69 -138v-109h-83q0 -28 83 -28v-178l27 -41v-69l-14 -27q25 0 96 -96q110 0 110 -41q0 -62 -124 -82q-167 44 -191 68q-96 125 -110 261q-14 0 -28 41q14 74 14 123v41l-41 55q0 48 82 124v27
q-41 45 -41 69q0 17 96 109q0 69 28 69h41l27 -14q0 82 41 82zM718 1741q93 -44 110 -109l27 13h14q47 -76 110 -123q27 -74 27 -82q-26 -14 -41 -14v-14l68 -82v-14q-68 0 -68 -27q62 -27 68 -55v-14h-27q32 -82 41 -82l-27 -69q26 -13 41 -13q0 -192 -41 -192l13 -28
l-13 -27q13 -24 13 -55q-60 -171 -137 -219q0 -124 -54 -124h-42l-27 14l14 -27v-55q0 -36 -110 -55q0 14 -14 14q0 -94 -123 -179q-64 -123 -165 -123q-24 0 -68 27q0 -13 -14 -13q-82 113 -82 178q0 84 151 164q26 -13 41 -13q87 167 137 192l68 -14v82q45 52 83 137
q-24 0 -69 28q-24 -14 -55 -14l-13 28q4 27 27 27h14l27 -14q4 28 28 28q123 0 123 -110q45 -27 69 -27q-83 83 -83 137q41 0 41 27v14q-82 0 -82 41q69 116 69 178v178q4 28 27 28q-27 200 -27 233q13 0 13 14q-137 42 -137 164v14q22 0 55 27zM855 1097v-55q5 -27 28 -27
q0 30 109 54q0 -13 14 -13v27l-68 14h-83z" />
    <glyph glyph-name="colon" unicode=":" horiz-adv-x="442" 
d="M225 932h41q67 -36 68 -54q0 -179 -192 -179q-55 0 -82 69q0 151 151 151q0 13 14 13zM238 384h28q73 0 96 -55q0 -192 -206 -192q-74 28 -82 69l13 55l-13 27q0 37 164 96z" />
    <glyph glyph-name="semicolon" unicode=";" horiz-adv-x="414" 
d="M238 919q96 -41 96 -83q-23 -136 -96 -164q-13 0 -13 14q-45 -28 -83 -28q-55 0 -82 55v55q0 14 14 14l-14 27v27q0 21 137 55q0 28 41 28zM183 439h28q96 -55 96 -110q-14 -82 -41 -82h-55q-79 30 -110 82h-27l27 96h28l27 -14q4 28 27 28zM252 219q20 0 41 -41v-13
q-65 -192 -164 -192q-42 45 -42 68q0 28 69 55q0 55 27 55q36 0 42 68h27z" />
    <glyph glyph-name="less" unicode="&#x3c;" horiz-adv-x="1113" 
d="M869 1399l27 -14q24 14 55 14q38 -52 55 -138q0 -68 -164 -82q0 -45 -179 -123q0 -55 -164 -96q0 -44 -124 -137v-14q31 -68 233 -137q0 -20 42 -41l27 13q96 -18 96 -54l69 13q191 -29 191 -123v-178l-123 -14q-2 30 -137 82l-41 -27h-55q0 31 -55 82l-27 -14l-274 206
l-28 -14q-48 0 -110 96q-91 0 -123 55v41q0 114 110 124q0 41 137 96q86 137 192 137l164 96q135 46 206 151z" />
    <glyph glyph-name="equal" unicode="=" horiz-adv-x="1346" 
d="M1006 1124h206q1 -59 55 -137v-96q-73 -86 -124 -96q-128 0 -192 69h-55l-13 -69h-69q-23 0 -41 69q-94 -14 -123 -28l-69 14l-123 -14q-113 14 -137 28l-83 -14h-55q-68 0 -82 55l14 82l-14 55q21 55 41 55h165q88 0 178 -14q53 14 110 14l27 -14q14 0 14 14
q120 -14 178 -41q146 68 192 68zM183 699h28q188 -3 301 -68l247 41q74 -14 124 -14h13q96 0 302 14l27 -41v-165q0 -27 -82 -55q-116 14 -192 14q-73 -27 -82 -27q-82 9 -82 27l-69 -14q-22 0 -164 14q-27 -63 -55 -69h-14q-15 0 -69 83q-24 0 -137 -69h-82q-81 0 -137 110
l14 27q-14 24 -14 55q35 0 69 124q24 13 54 13z" />
    <glyph glyph-name="greater" unicode="&#x3e;" horiz-adv-x="1127" 
d="M170 1399l27 -14q27 14 41 14q18 -84 220 -165q87 -69 219 -96q87 -104 247 -206q0 -18 82 -41q41 -108 41 -123l-68 -69h-83q0 -79 -109 -96v14q-130 -83 -288 -206l-28 14q-70 -96 -82 -96l-68 41q-146 -82 -179 -82q-82 14 -82 41v137q0 101 151 124q0 13 14 13h27
l69 -13q0 22 95 54q27 -13 42 -13q0 37 164 96q74 55 96 55v68q-77 0 -137 123q-151 0 -151 110l-27 -14q-36 9 -192 124q-110 0 -110 41v96q32 69 69 69z" />
    <glyph glyph-name="question" unicode="?" horiz-adv-x="894" 
d="M170 1796h27l14 -68h27q72 0 124 41h27q27 -5 27 -28v-68h69v-41q-27 0 -27 -42h-28q-41 69 -96 69q0 -41 -55 -41v-14l14 -27q-24 0 -123 -82l-83 -14h-27v14q0 147 110 301zM485 1769h14q203 -69 288 -247v-55l-14 -68q20 0 41 -42v-13q0 -28 -27 -28h-14l-123 83v82
l-124 123v14l14 68l-82 42v13q4 28 27 28zM759 1275q20 0 41 -41l-13 -69q13 -26 13 -41l-27 -13h-69l-13 68v82zM636 1056h96q27 -5 27 -28v-13q-41 0 -41 -28q0 -27 41 -27v-41q-31 0 -55 -14l14 -27v-55h-27l-55 68q0 -123 -178 -123q-14 26 -14 41h-28q-24 -94 -54 -137
q27 -28 41 -178l-28 -14h-13q-31 0 -55 14q-24 -14 -55 -14q-55 14 -55 82q55 0 55 41l-41 69v41q0 14 14 14l-14 27v14l27 41q0 10 -13 82q0 96 82 96l68 14l14 -28q247 33 247 83zM183 315q29 0 275 -54q-14 -98 -14 -110q41 -69 41 -110v-41q-160 -82 -192 -82l-206 137
v14l14 82q-14 24 -14 55q0 19 83 82z" />
    <glyph glyph-name="A" unicode="A" horiz-adv-x="1881" 
d="M896 1686h14q38 0 55 -137h-27l-28 14v-41q110 0 110 -165q49 -39 109 -205l-13 -55q13 -27 13 -41q-21 0 -54 -55v-41h13q50 41 96 41h14v-55q-41 0 -41 -27v-28q96 -67 151 -219h13l-13 -69v-13q55 -7 55 -42v-27q-69 -56 -69 -69v-41h14q0 55 82 55q14 -68 55 -96
q14 -24 14 -55l-14 -27q41 0 41 -27v-55l-55 -14q82 -50 82 -96q137 27 179 27q109 -35 109 -123v-14q0 -19 -41 -41q-143 14 -233 14q-89 -28 -123 -28q-89 28 -124 28q0 -28 -27 -28h-14q-99 0 -123 42q-64 -42 -83 -42q-82 29 -82 110q79 55 124 55l54 -14q151 11 151 41
q-13 0 -13 14l-28 -14h-27q-28 0 -28 28v14l28 41v27q-41 34 -83 123h-13v28q0 31 13 55q0 71 -178 192v27l110 165v96h-28q0 -83 -27 -83h-14q-29 0 -82 165q20 0 41 41l-41 55l14 82q-76 0 -82 124h-28q-82 -60 -82 -192q-49 -151 -69 -151h-13q-28 0 -28 27v55
q41 0 110 288l137 219l-14 83v13q0 20 41 41zM636 672q121 -14 151 -14q26 14 41 14l14 -28v-27q-36 0 -96 -41h-28q-82 48 -82 68v28zM499 631h55q27 0 27 -41q-36 -136 -82 -165q0 -41 -55 -41v-28q55 0 55 -68q0 -41 -41 -41v-69l-28 -41v-14l69 -13h27q31 0 55 13
q58 -37 151 -54l14 -55q-27 -63 -55 -69q-11 0 -83 14q-14 0 -41 -14q-219 9 -219 55h-14q-50 -41 -96 -41h-123q-55 27 -55 82q0 66 219 110q0 19 55 110q0 44 82 123q-27 0 -27 27v14q0 27 55 27v14l-14 96q28 0 69 69z" />
    <glyph glyph-name="B" unicode="B" horiz-adv-x="1497" 
d="M238 1741q27 0 110 -55q110 0 110 -41h27q0 57 69 83h13v-14q0 -63 -41 -124v-41q41 0 41 -27v-165h-27v-41q41 0 41 -27v-14l-69 -82v-41h69v-14l-41 -55v-41h27v-41l-27 -41q4 -28 27 -28q5 28 28 28h123q0 -41 28 -41q4 27 27 27l69 -55l54 55h14q49 0 219 -123
q14 -27 192 -96q0 -99 96 -206q0 -31 -13 -55q13 -150 13 -260q0 -65 -96 -96l14 -28v-13q0 -20 -41 -42h-14l-27 14q0 -21 -55 -55l-41 28h-14q-67 -69 -247 -69h-27q-55 22 -55 96v14q0 20 41 41h14l55 -41h41q0 87 96 164q0 9 68 69q-27 0 -27 27v28q0 27 41 27v82l14 69
q-78 46 -124 165q0 72 -82 96q0 16 -96 68h-41l-41 -27l-27 13q-129 0 -206 -96v-13l27 -41v-28h-27v-27q55 0 55 -110q0 -14 -14 -14l14 -27v-28q0 -21 -124 -54q-13 -72 -13 -83h13l83 69h13q41 -9 41 -110q-13 -26 -13 -41h-41l-42 28q-41 -14 -41 -83l69 14h27
q18 0 96 -192q-13 -27 -13 -41q-35 0 -124 27q0 -41 -315 -55q-137 24 -137 124v27q20 55 41 55q50 0 151 -82q26 14 41 14v41q41 144 41 151q-20 0 -41 41v13q4 28 27 28q45 -28 82 -28v41l-68 55q14 55 14 96h96v14l-14 27l-96 -13h-41v41q4 27 27 27q74 -13 124 -13
q0 27 41 27v27q-41 45 -41 69h-14q0 -41 -28 -41h-27q-20 0 -41 41v27l27 42q0 34 -54 41v137h41v27q-41 0 -41 28v27q22 0 68 69h14q27 0 27 -42h55v28q-18 55 -123 55v41l68 14q0 -14 14 -14l14 27v14q-24 0 -69 41q0 -20 -41 -41q-27 0 -27 27v96q0 35 54 42v68l-109 151
l-124 -69h-55q-27 0 -27 28v13q0 75 82 110q14 0 14 -14q13 0 82 55zM1061 1673h27q41 -55 151 -83l14 -68v-96q55 0 55 -82h-14q-27 -14 -41 -14q-27 14 -41 14v-41h68q28 -5 28 -28v-55q-55 -4 -55 -55q21 0 55 -54v-28q0 -17 -83 -68l-68 13q-14 -26 -14 -41h-68v14
l-14 137q41 0 41 27l-55 55l14 220l-14 55l124 13q-55 50 -55 69h-55q0 -41 -41 -41q-24 13 -55 13v41q96 0 96 83zM430 1412q41 0 41 -82l28 14l-14 27v55q0 27 41 27v14h-41q-21 0 -55 -55zM1171 192v-27h-83l110 -83h27q-35 110 -54 110z" />
    <glyph glyph-name="C" unicode="C" horiz-adv-x="1648" 
d="M704 1686h42v-68q-192 -81 -220 -165h-14q-22 0 -41 96h-27q0 -54 -41 -96l41 -54v-28q0 -27 -28 -27q-26 13 -41 13v-13l14 -96q-22 0 -55 -110h-41v-27l28 -42v-13l-42 -55q0 -28 42 -28v-54q0 -96 -42 -96v-41h28v-28l14 -82l-14 -28l41 -68v-28l-55 -68v-14h69
q27 -4 27 -27l-14 -69q20 0 41 -41l-13 -82v-14q82 -14 82 -68h14l41 27h14q78 -82 123 -82l14 -28v-13q-83 -42 -96 -42q-41 0 -41 83h-14l-41 -28h-55q-45 69 -123 96q-19 96 -42 96q-13 -26 -13 -41h-28l-13 69q13 0 13 13q-123 65 -123 151q-14 0 -28 41l42 69l-42 55
q0 101 42 109h27v-123q4 -27 27 -27q0 18 55 96v13q-46 0 -55 96l-27 14h-14l-41 -27q-27 0 -27 27l13 27l-27 124q29 13 123 27l-13 69l-69 -14q0 54 55 192v41q55 0 55 28q0 41 55 82q13 137 82 137q78 68 123 68q103 69 151 69h82v27zM1102 1673h41l55 -41q24 13 55 13
q19 -56 68 -82q21 55 42 55h27q21 0 55 -55v-41q-50 -110 -69 -110q-55 28 -55 83q14 0 14 13q-71 14 -110 55q-150 45 -150 69v13q4 28 27 28zM1472 1426q41 -9 41 -110v-68q0 -83 -54 -83l-110 69v41q41 0 41 28v13h-27v14q0 17 109 96zM1431 480h41l96 -124
q-13 -75 -13 -109l13 -28q-59 -131 -164 -205h-14q-14 0 -14 13q-45 -27 -82 -27h-41q-28 0 -28 41h-27v-82h-55v151q52 0 124 82q30 0 54 14l-13 27v14q36 67 55 68q41 0 41 -41h27q-27 38 -41 178z" />
    <glyph glyph-name="D" unicode="D" horiz-adv-x="1771" 
d="M156 1700q106 -20 151 -82h14q0 34 54 41q27 -14 41 -14q156 55 206 55l41 -55v-41h-274q-27 -4 -27 -27q123 -51 123 -69v-82h-27l-28 14q0 -69 -27 -69h-41q-28 0 -28 28l14 27v69h41v13q-206 28 -206 137h-13q-65 -96 -83 -96q-27 0 -27 28v13q65 110 96 110z
M1102 1673h82q0 -38 110 -69l14 -27v-14q0 -27 -28 -27h-13l-28 13v-82h-55l-151 96v55q28 0 69 55zM1321 1522q96 0 96 -55v-27h110q41 -96 41 -137q69 -10 69 -42v-27q-41 0 -41 -27v-14q61 0 82 -137q-21 -55 -41 -55h-41q0 -28 -28 -28v-13q0 -23 82 -55l14 -96
q-56 -19 -82 -69l27 14h28q45 0 55 -164q-42 -14 -42 -28l14 -27q0 -31 -82 -69q0 -59 -27 -110q13 -26 13 -41l-41 -27h-27q-35 0 -41 55h-14v-14l14 -68l-42 -28h-13l-69 14q28 -45 28 -82v-28q-29 -55 -69 -55q-55 0 -55 83h-55l14 -69v-55q-14 -41 -82 -41h-14
q-46 0 -96 41q0 -82 -96 -82h-14q-82 58 -82 123q14 55 82 55v-14q209 79 302 151q27 -13 41 -13l14 27l-28 41v27q72 93 83 96l-14 28q55 96 69 96q27 0 27 -41h14v13q-28 90 -28 124v110l28 41q-41 60 -41 96q0 46 96 68l13 28q-96 73 -96 178q-27 0 -41 110q27 13 41 13
v14q-85 0 -109 69v27zM279 1371h14q41 -55 69 -55q26 14 41 14q0 -14 13 -14q5 28 28 28h14q27 -5 27 -28q-31 -96 -110 -96q5 -27 28 -27h82l14 -69l-14 -68l41 -69q0 -41 -82 -41q0 -15 82 -68q0 -14 -14 -14q0 -15 14 -41l-14 -124l14 -96q-58 -41 -110 -41v-14
q42 -68 110 -68v-55h-68v-27q68 0 68 -28v-68q0 -28 -55 -28v-68q41 0 41 -28v-41h-41v-14q83 -61 83 -123v-27q0 -28 -28 -28h-41q-38 41 -96 41q0 -27 -27 -27l-55 41l-55 -55h-14q-31 0 -55 14l-27 -14q-96 28 -96 110h14l-14 27q11 55 27 55q165 -6 165 -27v-14
q20 0 41 41v28q-31 0 -123 123v41q27 55 82 55q0 -14 14 -14l55 69q-45 27 -83 27h-41q0 22 -27 55q0 55 123 55v14h-55l14 96q-27 0 -27 27q13 55 150 55q0 -14 14 -14l55 96l-82 14q-63 -110 -151 -110q0 10 -14 82q22 0 55 55v14q-41 0 -41 27v28q27 0 27 55h-27
q0 52 68 123v96q0 27 -41 27v69q0 20 41 41z" />
    <glyph glyph-name="E" unicode="E" horiz-adv-x="1648" 
d="M814 1755q37 -5 55 -69q0 -21 -82 -82h-69q0 24 -27 69q34 82 123 82zM115 1714h27l41 -28h14l41 28h28q7 0 109 -96q72 0 137 68q55 0 55 -191v-55q0 -93 -68 -206v-82q68 0 68 -28v-55q0 -27 -55 -27q75 -82 83 -151l55 -41l68 14v-55l-110 -82q0 -55 -41 -55l14 -28
v-13q0 -41 -14 -41l14 -69v-27q0 -38 -27 -83q13 -74 13 -123v-14q-41 0 -41 -27v-41q82 -114 82 -137v-42h14v-68h-68q-42 0 -42 96h-54q0 -87 -179 -96q-34 0 -109 -14q-102 51 -110 82q0 20 41 42h206q44 41 123 41v13q-27 0 -27 14l-28 -14h-27q-27 0 -41 96q20 0 41 42
v109q-55 0 -55 69q0 14 14 41q-14 26 -14 41l41 27q18 0 55 -137l41 -27h14v27l-14 28q14 0 14 13q-55 0 -55 42v68q-82 0 -82 28v150q0 57 -14 151q21 55 41 55h28l13 -68q28 0 28 27v27q0 62 -96 110v27l14 28q-28 63 -28 123h14q0 14 -14 14q0 233 82 233q28 0 28 28
l-14 27l-27 -14q-58 0 -124 96q-41 -27 -96 -41l-82 14v41q0 74 55 96zM1157 1700h27q97 -27 137 -27v-69q0 -27 -41 -27v-28l69 14q31 0 41 -68q-14 0 -14 -14q69 0 69 -82v-42q0 -19 -41 -41h-14q-14 0 -14 14l-27 -14h-14q-116 37 -178 192q0 13 -55 82v55q0 22 55 55z
M1006 1124h41q19 -1 55 -68v-28q0 -27 -69 -27v-28q96 -86 96 -123q-13 -26 -13 -41h-41l-55 41h-14v-55q55 0 55 -82q-14 -27 -14 -41q96 -19 96 -41q0 -132 -123 -165q-31 0 -55 124v41l27 41q-27 41 -27 96l-27 -14q-13 0 -83 55q0 -20 -41 -41h-14q-21 0 -54 55v13
l13 69h179q27 0 27 27q-27 0 -27 28v27q24 30 41 124zM1472 425q96 0 96 -96v-41q0 -31 -13 -55q13 -24 13 -55v-13q-30 0 -151 -206q-12 0 -109 -14q-53 110 -69 110v-96q-17 0 -137 -14q-13 0 -96 69q-14 -24 -14 -55h-68l-14 68q96 42 96 69h178q36 41 110 41l-14 69
q151 58 151 82v14q-41 0 -41 27v41q0 28 82 55z" />
    <glyph glyph-name="F" unicode="F" horiz-adv-x="1525" 
d="M1143 1782q32 -82 55 -82h27q0 82 42 82h27v-68l41 -55v-27q0 -32 -68 -42v-27h41l55 41q82 -48 82 -68q-14 -41 -82 -41h-42q-65 0 -192 164q-96 0 -96 69h-27q0 -55 -27 -55h-55l-14 55q46 54 233 54zM115 1700q161 -14 233 -14q19 0 55 -68v-28q0 -31 -69 -41
q-13 23 -13 69q-30 0 -206 -28l-14 28v14zM458 1686h96q27 -4 27 -27l-27 -41l41 -55v-14l-28 -41v-13l28 -42v-301q0 -28 -83 -28v-41q5 -27 28 -27q4 27 27 27h28v-55l-28 -41q22 0 55 -55v-13l-55 -83v-27h69v-41q-124 -34 -124 -55q96 -47 96 -69v-13l-109 -96v-14h13
l83 14q41 -14 41 -28q0 -44 -137 -82l-14 -55l27 -14q22 83 96 83q28 -50 28 -110v-14q0 -66 -41 -137q27 0 82 -55q31 0 55 14q45 -27 82 -27q15 0 41 13q83 0 96 -109v-14q0 -21 -55 -55q-34 0 -109 14q-11 0 -83 -14q-141 0 -219 69h-55l-55 -55h-288q-27 0 -27 27v41
q0 20 82 83q46 0 96 -41q45 13 110 82q-14 140 -14 219v28q5 27 28 27h96v27h-42l-68 -13l-27 41v14q4 27 27 27l-14 69v27q69 0 69 27v83h-55v55l55 54q-69 0 -69 96q33 110 41 110q-27 54 -27 151v14q0 41 82 41v27h-27v28q0 105 -55 123l14 82h13l83 -55h13
q-27 70 -27 96h55v28l-69 82q4 27 28 27zM1047 1165h82q28 -4 28 -27q-55 -61 -55 -69v-27l14 -164l-28 -14q-27 0 -27 41q-110 -47 -110 -69h-13q-31 0 -55 14q-24 -14 -55 -14q-45 28 -82 28h-96v41h82l96 27h41v14h14q27 0 27 -68h28v95q39 69 82 69v96q4 27 27 27z
M1061 740h55q0 -24 27 -68q-14 -27 -14 -41l14 -83l-41 -27q-55 21 -55 41v14l28 41q-28 45 -28 82q14 27 14 41z" />
    <glyph glyph-name="G" unicode="G" horiz-adv-x="1895" 
d="M1143 1714q14 -27 14 -41h123q96 -124 165 -124q14 -22 14 -68l27 14h14q82 -36 82 -220v-110q0 -27 -27 -27q-64 28 -124 206h-27v27l27 41v28q-65 0 -82 109q-165 0 -165 69h-109v41h-14l-55 -41h-41v41q14 41 82 41q14 0 14 -14q45 28 82 28zM910 1700v-14
q-55 -54 -55 -82h-55q-27 0 -27 28v13q0 38 137 55zM471 1632h28v-55q0 -14 -14 -14l14 -27v-96h-28l-41 27q0 -137 -68 -164q0 -214 -124 -288h-13v-14q109 -3 109 -55v-14l-41 -54q41 0 41 -28v-14q-45 -52 -82 -150q96 -19 96 -42v-27q-82 -89 -82 -96q82 0 82 -41
l-41 -69q33 -96 68 -96h28v-41h-28v-27h14l96 14l14 -28v-27h-83v-69q0 -18 -68 -68h-14q0 64 -109 82q0 82 -42 82v41q0 28 42 28v13q0 28 -28 28l-82 -14q-19 60 -55 110q0 37 27 82q-27 50 -27 110v13l27 42q-27 0 -27 27v14l27 41q-27 0 -27 27v274q55 0 55 69
q-31 0 -41 69q45 27 82 27l-41 55v14q105 0 123 137q84 91 206 164q4 28 27 28zM252 1207q0 -69 -82 -69v-27h82l27 13l-13 28q0 13 13 13q-13 27 -13 42h-14zM1637 754q0 -27 13 -27q72 13 83 13q82 -21 82 -109l-41 -28h-55q-14 0 -14 14l-27 -14q-41 14 -41 28l-69 -41
h-13l-42 27q0 -14 -13 -14l13 -55v-96q55 0 55 -27v-14q0 -27 -96 -27q0 -18 110 -110q0 -41 -69 -41v-27q83 0 83 -55q31 0 41 -69q-53 -41 -82 -41q0 14 -14 14q0 -41 -124 -69v-13q-14 0 -41 13q-94 -13 -151 -13l-13 27v14l41 55l-14 27q18 132 96 192v55q-27 0 -27 27
v69h27v13q-24 31 -41 138q-41 0 -41 27v55q53 0 110 68l68 -41v41q69 0 206 14zM1102 727q27 -45 27 -69l-41 -27h-109l-14 55q96 41 137 41zM1335 165q62 0 82 -14q27 14 42 14l-14 68h-55q-28 -6 -55 -68zM512 165h14q34 -28 55 -28v-27l-27 -41v-14l68 41q37 -36 206 -82
l55 27q26 -14 41 -14v-27q0 -20 -41 -41l-41 27q0 -27 -28 -27h-68q-51 41 -96 41q0 -41 -69 -41q0 27 -165 82v41q28 0 96 83z" />
    <glyph glyph-name="H" unicode="H" horiz-adv-x="2101" 
d="M1842 1728q83 0 83 -83v-13q0 -28 -28 -28h-13q-28 0 -28 41h-41l-41 -27l-41 27q0 -76 -69 -164v-55q41 0 41 -27v-28l-55 -55l55 -13v-42q0 -18 -96 -82q61 -68 96 -68v-110h-27v-41q41 -50 41 -96q0 -28 -27 -28l-55 42h-14v-42q4 -27 27 -27h69v-41q0 -28 -96 -41
v-41l69 13q19 0 41 -41q0 -14 -14 -14l14 -27v-27q0 -28 -28 -28h-55v41h-27v-68q91 0 110 -55v-41q-55 0 -55 -28v-27q0 -28 41 -28v-68q-55 0 -55 -27q14 -27 14 -42q-14 0 -14 -13q13 0 96 -69q7 0 55 14l69 -28l68 14q63 -26 69 -55v-68q0 -20 -41 -41h-151
q-31 0 -55 -14l-69 27q-26 -13 -41 -13q-82 54 -123 54h-41q0 -54 -55 -54q-15 0 -41 13q-117 -13 -192 -13h-14q-20 0 -41 41q0 74 68 109h55l41 -27q115 0 124 151q-14 24 -14 55q4 36 69 68q13 27 13 41l-27 -13h-14q-27 0 -27 27v82q0 69 41 69v14q-41 0 -41 41
q14 24 14 55l-42 54q0 28 42 28v14l-83 13v14q0 20 41 41h14l69 -14v42l-41 54v55q45 69 54 69l-41 68l28 41v28q-41 0 -41 27v83l13 68h69q27 0 27 28l-27 41v27h27v28q-21 0 -55 27v-55h-27q-27 0 -27 28v68l13 96h137v-69h41q0 98 179 138h13zM211 1700l96 -14
q26 14 41 14q4 -27 27 -27h124q27 -5 27 -28v-68h28v82h27l41 -27h14q10 68 41 68h41l41 -27h14v27h41q22 0 55 -55q-14 -26 -14 -41h-178q0 -57 -165 -82l-13 -27q109 0 109 -28v-68q0 -28 -109 -28q0 -13 82 -55q0 -34 27 -68q0 -28 -41 -28q0 -27 55 -27v-69
q0 -21 -55 -55h-27l-41 28v-69h68q20 0 96 -96v-82q-27 -184 -82 -219l41 -55v-137l-14 -28q28 -4 28 -27v-151l27 -41q-61 -192 -109 -192h-55l-28 14q0 -69 -342 -69q-63 27 -69 55v27q0 110 110 110q41 0 41 -41q151 0 151 110h54l28 -14v27q-85 0 -110 69l14 68v110
q27 55 82 55v27q-82 14 -82 42v27q0 14 14 14l-14 27v82q0 14 14 14l-14 28v109q0 28 96 28v13q-28 0 -96 110v41q0 28 41 28l-27 41v55q0 27 68 27v14q-68 0 -68 41q0 14 13 14q-27 139 -41 260q14 0 14 14q-123 16 -123 41q-45 -28 -83 -28h-13q-20 0 -42 42q24 68 124 68
zM1349 919h55v-41q0 -22 -55 -55h-357v55l55 13q218 -13 261 -13q41 0 41 41zM746 110q139 0 164 -69q0 -82 -96 -82q-83 0 -123 96q13 55 55 55z" />
    <glyph glyph-name="I" unicode="I" horiz-adv-x="949" 
d="M197 1700h28q37 -38 137 -55v-27h27q0 41 27 41h165q27 -4 27 -27v-14q-54 0 -54 -28q27 -33 27 -54q0 -69 -27 -69l13 -27q-13 -27 -13 -41l13 -28q0 -14 -13 -14l13 -68v-261l-27 -41q20 0 41 -41v-27l-27 -41v-28h27v-41h-27q27 -98 27 -110v-27l-41 -55v-14l55 -55
v-150l-28 -42l28 -41l-28 -41h41v-13q0 -110 -82 -110v-28q41 0 41 -41l55 41q28 0 28 -41q63 28 123 28q62 -23 96 -83v-27q-1 -19 -69 -55h-27q-33 28 -55 28q-68 -42 -110 -42q-72 28 -123 69q0 -16 -96 -69q-199 42 -206 42q0 -28 -27 -28h-27q-36 55 -69 55v27
q27 55 82 55t179 -27q0 14 13 14l-13 27v41l68 14q24 -14 55 -14l14 28q-93 0 -137 68v28h13l165 13v28q-15 0 -41 -14q-110 14 -110 68l27 69q-13 27 -13 41q33 28 54 28v13q0 28 -41 28v96l-13 96q53 41 82 41v41h-123v55l41 55q-27 13 -41 13v28l41 55v68h54v-96h14
q20 0 41 41v14l-27 41v41h27v55h-27q-34 0 -41 -55h-41v83l-41 54v28q41 0 41 68q-27 14 -41 14v14l41 55q-27 13 -41 13v96q0 22 -55 55h-124v41q0 22 55 55zM677 1700h69q45 -41 68 -41v-41q-75 -14 -110 -14q-54 14 -54 82zM430 1344q55 0 55 -28v-68h27v96q0 27 -27 27
h-27q-28 -4 -28 -27z" />
    <glyph glyph-name="J" unicode="J" horiz-adv-x="1045" 
d="M526 1714q24 -14 55 -14v-82q80 80 247 96q137 -24 137 -124v-41q0 -27 -27 -27q-42 0 -138 55q0 -82 -54 -124h-28l-55 42l-68 -14q0 -28 41 -28q26 14 41 14q96 -96 96 -110v-54h-27l27 -42v-27l-27 -41l41 -82q-14 -24 -14 -55q41 -14 41 -83q-25 -120 -68 -123v-27
q54 -97 54 -233q-27 -5 -27 -28v-14q0 -30 14 -54q-28 -45 -28 -69q20 0 41 -41v-41q-86 -137 -164 -137q-110 35 -110 123q0 21 110 96q-96 0 -96 41v41q0 293 41 329l-27 42l27 41q-27 0 -27 27v69q0 7 54 68q-54 0 -54 41v69q72 14 82 14v27l-69 -14l-13 28v41h82v41
q-49 0 -110 69v13q0 35 55 41v14q-55 0 -55 28q0 27 82 27v14h-96v41l28 41h-41q-28 0 -55 -82h-69q0 23 -41 68q0 110 192 110zM211 302q219 -11 219 -124q55 0 137 -123q0 -124 -178 -124q-240 48 -288 83q-41 68 -41 109q0 74 151 179z" />
    <glyph glyph-name="K" unicode="K" horiz-adv-x="1950" 
d="M1267 1714q27 -34 27 -55q76 41 151 41q4 -27 27 -27h14v27h110q31 0 41 -68q0 -24 -28 -83q-61 2 -123 55q0 -82 -96 -82h-14l-27 14q-7 -110 -96 -110q-28 -21 -69 -165h-68v42l-28 -14l14 -28v-13q0 -20 -41 -41q-28 0 -28 27q0 82 124 151q0 41 68 41v82q0 77 -68 96
q-45 -27 -82 -27h-14l-14 68v14h96q62 53 124 55zM129 1686h68q210 -41 219 -41q14 -55 83 -55v42h41l-14 -96q55 0 55 -69l-27 -41v-27h27v-69q-41 0 -41 -55l14 -68l-83 -96q8 -49 83 -110q0 -92 68 -165h55l165 137h27v-27q0 -27 -27 -27q54 -151 109 -151
q73 -54 124 -124q41 0 41 -27v-69l-28 -96l41 -27q27 14 42 14v41q-42 0 -42 68l42 28q46 -16 82 -82q24 -14 55 -14v-124q85 0 205 -150q0 -28 -54 -28v-13q4 -28 27 -28q125 28 137 28q27 -14 41 -14q45 27 82 27q80 0 124 -96v-13l-28 -96q-269 13 -356 13q-32 0 -82 41
q-55 -27 -55 -41l-69 14h-82l-69 -14v14l-27 -14h-55q-20 0 -41 41v14q58 82 123 82l69 -13q0 13 14 13q0 42 -41 42v41q41 0 41 27v14q-220 31 -220 192q28 0 28 27q-119 0 -178 110q-69 96 -110 96v14q0 68 41 68v14q0 27 -27 27h-28q0 -41 -27 -41h-14l-41 28h-14
l-96 -55q14 -27 14 -41h14v27h27q27 -4 27 -27q-55 -111 -123 -165q96 0 96 -41q0 -34 27 -69v-13l-68 -14q26 -50 82 -69l-14 -54q14 -76 14 -110q-27 -4 -27 -28v-13q49 0 109 -41l83 13h27q28 -4 28 -27v-41q0 -41 -55 -41l-96 13l-28 -13q-103 27 -109 27v-27l-69 13
q-75 -13 -110 -13l-27 41v219l14 28q-27 13 -41 13v55q54 0 54 41l-54 14v55h95v27q-54 0 -54 28v68l13 82q-13 24 -13 55q20 14 82 14q0 27 -28 27l-95 -13l-14 27v14q0 23 68 41q-13 17 -27 192q26 14 41 14v27h-41v14l96 109q-110 38 -110 110q14 82 69 82l-14 69v41
q-82 0 -82 28l14 27q0 32 -83 55v13h-41q0 -54 -41 -54q-14 0 -14 13l-27 -13q-20 0 -41 41q16 109 55 109zM636 1686h14l54 -41q5 28 28 28h27q0 -35 28 -69v-41h-28l-41 27h-68l-14 69v27zM142 123l28 -13q24 13 55 13q18 0 68 -68v-82h-192q-34 0 -41 54q33 96 82 96z
" />
    <glyph glyph-name="L" unicode="L" horiz-adv-x="1607" 
d="M334 1700q152 -55 178 -164v-14h14v123h28l68 -13l-14 27q5 27 28 27q233 0 233 -137v-13q0 -28 -41 -28q-45 28 -82 28h-28l-82 -14q-23 14 -69 14l-13 -28q68 0 68 -41q-14 -26 -14 -41q21 0 42 -55l-14 -82v-41q-41 0 -41 -83q41 -13 41 -82v-27q0 -14 -14 -14l14 -27
v-14q0 -28 -82 -28v-27q41 0 54 -68l42 -28l-14 -55l14 -82h-110v-14q0 -27 41 -27q27 14 41 14q28 -45 28 -83v-13q0 -28 -55 -28v-27q31 0 55 -14q0 -65 -69 -247l-69 14v-14q14 -24 14 -55l69 14h27q0 -96 137 -96l28 -41v-41l-41 -69q-141 17 -165 41h-41l-41 -27
q-41 0 -41 14l-69 -14h-14q-41 0 -41 14l-68 -14h-110q-96 41 -96 110q45 55 123 55q14 0 14 -14q14 0 14 14l247 -28q0 14 13 14l-27 55q-27 -14 -41 -14q-47 0 -69 96h124v14q-124 44 -124 68v69q0 27 69 27l-69 55q14 24 14 55h-27v14l27 41l-14 82h14l-14 27v96h28
l-14 69v123h96q27 0 27 28v13q0 31 -123 55v28q0 31 14 55q-14 26 -14 41h14l-14 27v192h27q83 0 83 -110h13v124h-55q-233 88 -233 137q0 72 151 82zM1417 562q38 -3 110 -96l-14 -68v-55q0 -31 14 -55q0 -110 -68 -110l27 -68q0 -21 -55 -151h-55q-68 0 -68 27l-28 -13
q-23 0 -82 27q0 -27 -27 -27q-18 0 -69 68q0 -68 -55 -68q-41 0 -41 41l-55 -41h-13q-42 13 -42 82v27l110 69q36 0 96 -41q137 68 137 151q14 0 14 27h41l82 -69v14q-13 24 -13 55q13 0 13 14q-91 0 -109 150q35 0 41 69q77 19 109 41z" />
    <glyph glyph-name="M" unicode="M" horiz-adv-x="2292" 
d="M1993 1755q57 -19 83 -69v-27q0 -27 -28 -27h-27l-96 13v28q0 82 68 82zM266 1700h27q80 0 96 -123v-14l-27 -14q-34 28 -55 28q-122 -14 -151 -14l-14 27v42q0 41 124 68zM540 1700q38 -7 110 -96v-27q-83 0 -96 -82l41 -28h13v55h42q0 -69 41 -69v-41h-28v-27
q96 0 96 -124q25 0 41 -123q28 -4 28 -27v-28q0 -27 -41 -27l82 -55q0 -14 -14 -14q38 -151 55 -151q20 0 41 -41v-13q-41 0 -41 -28q56 0 123 -260q-13 0 -13 -14q26 -14 41 -14v-151h14q0 32 41 96q0 110 55 110l-14 69q14 0 41 13l-14 28q14 26 14 41h55q27 -4 27 -28
v-13q0 -20 -41 -41l14 -28v-27q-85 -240 -151 -247v-14q14 -74 14 -123q-64 -178 -96 -178q-20 0 -82 150q-32 0 -42 69h14l-14 27v28q55 0 55 82v14q0 27 -27 27h-14v-68h-55q0 36 -41 137q106 41 124 82h-55l-41 -27h-55q-44 179 -124 246q-51 233 -68 233h-14v69
q0 24 -41 123h14q-55 56 -55 179l-28 -14q-71 0 -82 41v41q41 0 41 28l-41 68v14l69 14v27h-28v41q24 0 96 96h14zM1623 1700h55q41 -14 41 -82h14v68h27q31 0 41 -68q-41 -69 -41 -110q41 0 41 -27v-55q-38 -110 -55 -110q-96 -38 -96 -68h-13q-28 0 -28 27q0 31 14 55
q-9 82 -41 82v28q31 68 41 68l-14 28l55 54q-68 6 -68 42h-28v-124q-41 -63 -41 -109h-41q0 34 -27 68v55q14 0 41 14l-14 27v27q81 110 137 110zM1459 1371h13l14 -55q-27 -4 -27 -27l13 -69l-27 -13h-28q-27 0 -27 27v14l41 55q-14 26 -14 41zM1815 1330h14q27 -4 27 -27
v-28q0 -27 -41 -27v-28q55 -7 55 -41q-14 -55 -55 -55q0 -27 41 -27v-28l-27 -41q55 0 55 -27q0 -28 -110 -41v-14q82 -35 82 -96q41 0 41 -192q-26 -14 -41 -14v-54q55 -61 55 -69q-14 -27 -14 -41l28 -55q0 -49 -110 -69v-27l27 14h28q20 0 41 -41l-14 -55
q0 -137 220 -137q68 -27 68 -55h28v-28q0 -41 -55 -41l-69 41l-41 -27h-123v41h-165q-17 0 -55 96l28 41v14h-96q0 62 68 137l55 -41h28q-69 74 -83 178q-19 0 -41 41v192q0 14 14 14l-14 27q0 69 41 69v27q-41 0 -41 28l28 41q-83 86 -83 288q41 0 41 55h14q28 -5 28 -28
q0 -25 -28 -109h28q24 148 123 219zM444 1289h14q27 0 27 -41q-27 -192 -96 -192q-26 13 -41 13v69q41 0 41 27l-14 83q24 0 69 41zM1363 1069h41q-25 -123 -55 -123h-14l-27 14q16 109 55 109zM279 576h14q100 0 110 -124l-41 -68q27 0 27 -41l-14 -28q14 -24 14 -54
q-45 -28 -82 -28q-34 0 -41 55q13 26 13 41q-27 0 -27 27q0 15 14 42q-14 74 -14 123v27q4 28 27 28zM238 233q137 -14 137 -55v-68h55q31 0 55 13q65 -41 137 -54v-69q-34 0 -68 -27h-124q-50 41 -96 41h-82q-50 -41 -96 -41h-14q-82 48 -82 68v96q86 0 165 -41
q0 89 13 137zM1513 82h192v-41q-22 -55 -96 -55l-41 28q-13 -41 -82 -41q-55 20 -55 41v13q0 19 82 42v13z" />
    <glyph glyph-name="N" unicode="N" horiz-adv-x="1964" 
d="M1746 1741q138 -33 138 -109q0 -20 -42 -42l-96 28q0 -8 -82 -82l14 -28q-21 -55 -41 -55l-28 14l-27 -14q-91 0 -151 192q21 55 41 55h14q18 0 69 -68l-14 -28l27 -14h41v14l-27 41q4 28 27 28h96q4 68 41 68zM1376 1700l41 -68q-20 -55 -41 -55h-13q-83 0 -83 55
q19 68 96 68zM403 1673q26 -14 41 -14l-14 -27q114 -28 151 -124q50 -28 82 -96q32 0 41 -68l69 -14l-14 -69l96 14q41 -108 41 -137q-13 0 -13 -14h27v28h55q0 -84 82 -137q14 -9 14 -124q27 0 27 41h28q75 -96 109 -96v-27l-27 -41v-14q21 0 55 -27q0 55 27 55
q96 -110 137 -110v-41l-27 -41q30 -25 123 -42v-27q-13 -27 -13 -41q38 0 55 137q6 0 54 14q137 -14 137 -69q0 -19 -54 -96l13 -137q-27 -4 -27 -27v-14q68 0 68 -82q-13 -24 -13 -55q27 -4 27 -28v-13q-14 0 -41 -14l14 -27v-14q-46 0 -69 -69h-82q-55 55 -82 55v55l13 27
q-133 0 -178 192q-93 0 -151 192q-58 0 -82 124q-71 0 -82 41v14l27 41v13q-109 0 -109 96q-69 0 -69 83q-105 0 -165 109q-54 0 -54 28v13q0 28 41 28v14q0 19 -41 41q0 -28 -28 -28h-41q-36 0 -55 96q28 0 28 28q0 34 -96 82l-14 55h-14v-28h-82l-27 96q54 0 54 42v54
q-27 34 -27 55q26 63 55 69zM115 1659h82q47 -41 124 -55l13 -96l-55 -27q-54 45 -192 68l-13 28q8 82 41 82zM1596 1165h54q20 0 42 -41q0 -31 -14 -55q14 -93 14 -150v-14l-14 -27h27v-42l-27 -41q41 -13 41 -82v-27q-21 0 -55 -28h-14q-104 0 -123 55v41q28 34 28 55
l-14 137q27 103 27 192q28 0 28 27zM430 891q96 -43 96 -370q-20 0 -41 -41q41 -14 41 -82v-28q0 -31 -14 -55q14 -26 14 -41l-14 -96q14 0 14 -13l28 13h123q34 -27 69 -27v-69l27 -41q0 -27 -82 -55q-24 4 -110 69q-71 -69 -123 -69v14q-27 -14 -42 -14h-41v-13h-27
q0 54 -41 54q0 -68 -41 -68h-14q-14 0 -14 14q-26 -14 -41 -14q-137 44 -137 178q82 14 82 69h41q96 0 96 -96q36 6 69 123q-27 0 -27 28q0 57 54 109q-54 0 -54 28v13q0 28 82 55v14q-82 0 -82 41v69l27 41v13h-27v14q0 46 41 96v28q-55 0 -55 27v41q0 30 123 41z" />
    <glyph glyph-name="O" unicode="O" horiz-adv-x="1841" 
d="M1047 1700h28q20 -24 178 -41q0 -24 110 -69q24 14 54 14q99 -117 179 -178q0 -21 41 -55v-27q0 -28 -41 -28v-13q0 -11 82 -83v-27l-14 -96q96 -65 96 -82v-14q-46 -41 -68 -96h-28v-27l69 13q27 -4 27 -27v-28l-27 -41q27 0 27 -41q-41 -315 -82 -315l-14 -83l-96 14
h-55q-33 -27 -54 -27v-28h27l41 28h55l14 -55q-41 -27 -96 -27v-28l27 -41v-27q0 -21 -123 -69l-28 14q0 -20 -96 -96h-27q-22 0 -55 55v13q0 14 137 96l14 28q-14 26 -14 41q17 0 82 123q42 0 42 41q-20 0 -42 41q25 31 42 138h27v27q-55 0 -55 69q10 41 55 54
q-27 45 -27 83q13 26 13 41q-27 0 -27 27q0 72 55 124q-83 74 -83 96q14 121 14 150q-31 5 -68 124q-42 0 -55 68q-121 152 -247 192q-14 24 -14 55zM581 1673h14q0 -41 27 -41q0 41 28 41h27l14 -69q-10 0 -165 -96q-59 0 -82 -178q-69 -178 -96 -178h-41v-41h41v-42
q-41 0 -41 -27q26 -14 41 -14v-164h-27v-28h27v-178h-27v-55l54 -109v-55l-27 -41q74 0 82 -96q67 0 96 -137q82 -37 82 -55v-14q0 -22 -96 -69h-27q0 42 -82 42l13 68q-46 0 -150 41v124h-69q-68 36 -68 54v14h54v28q0 19 -82 82l14 96v14q-28 33 -28 54q0 24 28 83
q-55 20 -55 41v14q7 0 55 13v41l-55 55v28q0 27 82 27v41h-41v41h82v28q-27 55 -82 55v41q31 0 55 13l-14 69v27q48 35 137 179q28 0 28 27q-14 27 -14 41h55q74 0 82 82q46 0 151 83zM197 905v-55q14 0 96 96v27q-63 -68 -96 -68z" />
    <glyph glyph-name="P" unicode="P" horiz-adv-x="1456" 
d="M170 1714q151 -11 151 -28l-14 -54v-14h14q0 68 54 68q110 -8 110 -41v-27q0 -9 -69 -69v-13l28 13h68q0 15 14 41q-14 24 -14 55q0 14 96 69h42l13 -55q14 14 206 27v-13l27 13h28q33 -41 178 -54q86 -96 110 -96v-110q0 -25 -124 -41v-14h83q0 -41 27 -41q24 30 41 192
h41q20 0 41 -41v-110q28 0 55 -41l-13 -69l13 -96h-13l13 -27v-41q0 -20 -41 -41l14 -69v-14q0 -19 -41 -41h-28l-27 14l14 -27v-83q0 -27 -42 -27q-45 27 -82 27q0 -13 -14 -13q14 -27 14 -41q-14 -27 -14 -42h-27q-27 0 -27 28l-28 -14h-14l-41 28h-13q0 -42 -28 -42h-27
q-20 0 -41 42l55 96q123 46 123 178q27 0 27 68v137l28 42q-61 42 -96 150q-14 0 -14 14v14q0 14 14 14q-14 24 -14 54h-96q-34 0 -41 55h-14l-41 -27h-14q0 22 -27 41l-137 -14h-55q-27 0 -41 -109q27 -5 27 -28v-41h-27v-82h27v-28q-68 -60 -68 -68q0 -28 82 -55v-82
q-82 0 -82 -28q13 -26 13 -41h28v27h27q28 -4 28 -27v-14l-41 -55q27 -4 27 -27v-14l-27 -41q19 0 41 -41v-82h27v27h41v-41q-42 0 -82 -110h-14v-13l41 -55v-82q-41 0 -41 -28q69 -19 69 -96v-41q0 -27 -28 -27h-41v27h-13v-14q54 -61 68 -137q55 -7 55 -41l96 14h41
q151 -31 151 -69v-55q0 -21 -55 -54q-10 0 -82 13q-14 0 -14 -13l-68 13h-14q-57 0 -151 -13q-23 13 -69 13q0 -27 -41 -27q-78 0 -164 27q-94 -13 -151 -13h-55q-20 0 -41 41v27q27 55 82 82h41l42 -27h41q41 10 68 137q-13 24 -13 55q0 140 82 164h82v110l-55 -82h-82v55
q0 31 -14 55q21 54 41 54h14q14 0 14 -13q26 13 41 13v69h-14q0 -41 -27 -41h-28q-27 0 -27 27v124q0 27 82 41v41h-68q-28 0 -28 27v110l55 55h-55v55q0 31 -13 55q27 56 27 82q-27 0 -27 27v14q6 0 54 14v13h-41v206q-34 0 -68 27h-41l-83 -68q-18 0 -68 68v55
q41 69 96 69z" />
    <glyph glyph-name="Q" unicode="Q" horiz-adv-x="1854" 
d="M951 1686q74 0 96 -54v-55q0 -28 -27 -28h-41q-55 23 -55 96v14q4 27 27 27zM1116 1659h55q74 0 192 -137v-14q0 -13 -14 -13q14 -27 14 -42q57 55 109 55q28 -4 28 -27v-14q0 -27 -41 -27v-14q96 0 96 -41q82 -79 82 -96q-14 -24 -14 -55q0 -17 96 -55v-27
q0 -28 -27 -28l13 -68v-96l-13 -82q0 -31 82 -124v-68q-19 -55 -69 -55v-151q-26 -14 -41 -14q28 -44 28 -68q0 -31 -83 -69q-41 -86 -41 -123h-27l-69 13q0 -92 -68 -123h-14q-137 17 -137 55v41q87 123 192 123v83q0 30 -14 54q0 55 69 55v28q-83 0 -83 27v55q0 20 42 41
q30 0 54 -14q27 14 42 14v41q-42 0 -42 69l-68 -41q-28 0 -28 27v28q0 13 14 13l-14 28q0 27 14 27l-14 96v110q5 27 28 27h14q27 0 27 -41h14q27 0 27 27q-14 55 -14 96h-123q-27 0 -27 28l123 82q0 28 -27 28q-78 -42 -110 -42q-82 131 -82 179h41v41q-83 0 -83 55
q-117 0 -137 54v42q5 27 28 27zM540 1645h178q28 -4 28 -27q-47 -81 -179 -137q-24 -62 -96 -110l-55 41l-68 -55q84 -27 110 -27v-41h-96v-28q54 0 54 -27v-41l-82 -14v-41h28v-41h-28v-41h55v-41l-55 -55q55 -7 55 -41v-55l-41 -55q55 -14 55 -69q-18 0 -55 -82
q0 -27 41 -27q0 -88 14 -179l-14 -82h41v-41q-41 0 -41 -27q88 0 96 -83q69 0 69 -27q-14 -41 -83 -41v-14h110q0 -47 69 -96v-27h13q0 41 28 41h13q28 0 28 -41l27 13h151l41 -27q0 20 41 41q64 -41 83 -41v-27l-83 -55q14 -24 14 -55h-14l28 -82q17 13 96 13v14
q-96 0 -96 82q7 0 55 14q4 -27 27 -27h14v13l-14 96l27 14h14q28 -4 28 -27v-14q0 -37 -28 -82q247 -53 247 -220q-23 -68 -69 -68q-138 0 -192 55q-30 0 -54 -14q-21 0 -69 82l-27 14l-28 -14q-137 50 -137 137q-33 28 -55 28l14 68q-34 0 -41 55h-14q0 -41 -27 -41h-14
q-27 0 -27 41l-28 -14h-27q-54 75 -261 110v27q28 55 82 55v41q0 28 -27 28q-13 0 -110 -28h-27l-110 96l14 28l-69 27q0 28 42 137q-55 14 -55 55l13 55q-13 27 -13 41h13l-13 28v27q0 37 68 41v14q-68 0 -68 68q-14 91 -14 179v13q123 20 123 55h-82v69h69v13l-28 42
l14 27l69 -14h27q-82 71 -82 110q10 55 109 96v41q137 0 137 123h42q82 0 82 55zM211 521v-14q32 0 96 -55h27v55q-14 0 -41 14l-68 -14q0 14 -14 14zM1637 -219h41q18 0 68 -69v-14q0 -123 -178 -123h-41q-82 0 -82 82q0 124 192 124z" />
    <glyph glyph-name="R" unicode="R" horiz-adv-x="1786" 
d="M211 1714h27v-55q-36 -68 -55 -69h-27q-41 14 -41 83v13zM554 1714q54 -28 96 -28v-41h-14l-41 28q-36 -151 -110 -151v-27l27 -42v-27l-27 -41v-28h69v-13q0 -28 -69 -28l27 -41l-13 -82q0 -21 68 -82q0 -28 -41 -28v-41l28 -41v-28h-14q-27 14 -41 14v-27q0 -28 68 -28
v-13l-27 -41v-28q21 0 55 -27q4 27 27 27h28l54 -41h14q0 41 28 41h13q28 0 28 -41h41q49 55 233 110v27l-28 41v14q5 27 28 27v-27l68 14q0 -14 14 -14v14q-28 54 -68 54v42h27v27q-45 69 -55 69l14 68v69h27v13q-96 95 -96 220h-13l-41 -28q-36 55 -69 55q-27 0 -27 28v13
q13 41 82 41q23 0 82 -27l27 14q69 0 69 -83h96q0 -30 82 -95v-42q27 -13 41 -13v-83q0 -13 -13 -13l13 -28v-13q0 -28 -68 -28v-14l68 -54q0 -14 -13 -14l13 -69v-55q-54 0 -54 -27q0 -41 -69 -82q0 -23 -96 -41q0 -44 -123 -55q0 -55 -83 -55v-14q124 -82 124 -151
q18 0 109 -123h28v-27q0 -23 -96 -42v-13q164 0 164 -83q14 0 14 -13q0 -28 -27 -28h-28l-27 14v-68q4 -28 27 -28q91 96 124 96l13 -27v-14q0 -27 -41 -27q5 -28 28 -28l41 28h41q27 -5 27 -28q-27 -56 -27 -82l27 -14h42q27 0 137 28q109 -94 109 -124q-11 -47 -82 -82
q-73 0 -137 55q-45 -28 -82 -28l-55 41l-41 -27h-137q-69 39 -69 82q14 27 14 41q-27 14 -41 14v28l27 96h-27q0 -42 -28 -42h-14q-16 0 -109 220l82 55v82q0 27 -27 27q-14 -54 -14 -96h-69q-109 60 -109 192q-165 83 -192 83h-69q-27 -5 -27 -28q82 -18 82 -41v-27
q-41 -45 -41 -69l14 -27q-14 -23 -14 -69h-41q0 69 -28 69q-48 -83 -68 -83h-28q-19 0 -41 41v83q0 27 41 27v41q-41 0 -41 28v13h82v28q-82 0 -82 27l82 83v54h-27q0 -41 -27 -41q-68 36 -69 55v27q41 0 41 28v178l41 55v27q0 28 -41 28l14 96q0 31 -14 55q41 46 41 109h28
q0 28 -41 28q-27 -14 -41 -14l-42 55v41q5 27 28 27h68q96 -4 96 -27q13 0 83 55zM334 480h14q49 0 110 -55h41q0 41 27 41h41q28 -4 28 -27v-28q0 -35 -165 -41v14h-68q-28 0 -28 27v69zM279 356h55q38 -35 124 -54q50 27 109 27q41 -48 41 -164q-19 0 -41 -42
q96 -27 96 -54v-28q-28 -55 -68 -55q-24 0 -137 69h-14q0 -82 -288 -82q-86 0 -96 109q0 14 82 83h14q48 0 96 -55h27q25 123 42 123l-42 82v41zM814 137q28 -45 28 -82q-23 -55 -96 -55q-37 9 -69 69v13q0 45 137 55z" />
    <glyph glyph-name="S" unicode="S" 
d="M581 1686h41q37 0 82 -27q24 14 55 14q0 -33 110 -55q65 -65 82 -137q55 0 55 -69l-14 -55q14 -26 14 -41q-26 -62 -55 -68h-13q-31 2 -83 137l28 41q-69 0 -69 27v14l14 69h-69q-17 0 -68 82l-96 -14h-14q-20 0 -41 41q0 20 41 41zM348 1632h68q28 -5 28 -28
q0 -75 -82 -123l-69 41q-27 -33 -27 -55q13 -41 27 -41q27 14 41 14v-28l-27 -41v-55q27 0 27 -13q-13 -27 -13 -42q27 -4 27 -27v-41l-69 -14v-14q0 -19 42 -41q24 14 54 14v-41h-27q4 -28 27 -28l41 28h14q46 -46 206 -137q7 -25 137 -55q6 -82 82 -82v-28l69 14
q27 -4 27 -27v-14q0 -28 -55 -28v-27l28 14h55q21 0 54 -55v-41l-13 -69q62 -26 68 -55l-13 -27q27 -56 27 -82q-27 -68 -69 -124l14 -27v-41q0 -75 -68 -110h-41q13 -27 13 -41q-31 -21 -164 -41q0 -14 -14 -14h-41q-14 0 -14 14l-27 -14q-69 19 -69 96l110 110h55
q27 -5 27 -28q55 21 55 41q-65 0 -110 69v41l41 55q-19 0 -41 41l55 55q-151 104 -151 178v41h-41v-13h-41q-126 150 -192 150h-41v14l14 55v14h-14q0 -55 -41 -55h-14q0 51 -123 151q-41 84 -41 109v55q41 0 41 28q-31 0 -55 13l14 69v110q116 178 164 178h41zM129 466
q123 0 123 -192q82 -55 82 -123q-27 -4 -27 -28l27 14h55q43 -41 178 -55l14 -27v-14q-22 -55 -96 -55q-15 0 -41 14l-82 -14h-83q-45 41 -68 41l-96 -13q-41 53 -41 82q0 21 27 123q-41 0 -41 28v41q0 178 69 178z" />
    <glyph glyph-name="T" unicode="T" horiz-adv-x="1923" 
d="M1609 1741q68 -36 69 -55l-82 -54q13 0 13 -14l28 14q82 -14 82 -42v-41q58 0 123 -205l-82 -69h-14q-96 0 -96 82h14l-55 96l14 28q-110 84 -110 219q51 41 96 41zM211 1714h27q20 0 41 -41v-14l-27 -41v-14q21 0 55 -27q0 89 82 123q27 0 27 -41q27 14 42 14
q13 0 13 -14l69 14h110q0 -11 13 -83l-27 -13h-14q0 41 -27 41h-110l-55 -55h-14v41h-27v-14l14 -68l-28 -14q-26 14 -41 14q-123 -86 -178 -247q0 -27 -27 -27h-14q-22 0 -55 55v41q0 143 192 164l14 28q-110 0 -110 41v13l14 28q-32 0 -41 68q45 28 82 28zM965 1714
l41 -28h206q19 0 41 -41v-27q0 -20 -41 -41h-14l-55 41q-82 -28 -82 -82h-69q0 -28 -109 -28v-27q7 0 55 14l68 -42q4 28 27 28h28v-14l-14 -55q28 -44 28 -68q-45 -28 -83 -28l69 -123v-69h-55v-13l69 -96q0 -42 -42 -42v-164l-137 -110l-13 -27q0 -20 41 -41h27
q0 74 69 109h27q28 -4 28 -27v-55q-42 0 -42 -27v-14q83 0 83 -82v-83q0 -30 -14 -54q14 -24 14 -55q-20 0 -41 -41v-28h27v-55h-69q-41 14 -41 83h-13v-55q0 -45 137 -69v-13l-14 -28l96 -14h82q32 0 41 -96q-22 -68 -82 -68l-68 14q-15 0 -42 -14q-178 27 -329 27l-27 -13
l-27 13q-15 0 -42 -13l-68 13l-28 -13q-68 22 -68 82q20 55 41 55h27l42 -28q0 19 68 55h55l55 -41v14l-28 41v41h55v27q-55 0 -55 28q0 68 55 68v14q-55 0 -55 96v14l110 82q-41 0 -96 14q14 97 14 109l-14 28q0 151 110 151v13q-96 0 -96 329l14 83q0 10 -14 82l14 27
q-14 24 -14 55q0 28 41 28v27q-41 0 -41 28v27q32 0 82 68l69 -13l13 27q-50 28 -109 28q0 -20 -41 -42h-110q-31 0 -41 69q13 0 13 14l28 -14q7 0 55 14l27 -14q110 27 151 55z" />
    <glyph glyph-name="U" unicode="U" horiz-adv-x="2087" 
d="M650 1741l233 -68q13 -120 13 -137l-27 -14h-27l-69 55q-178 0 -178 -41v-14h41v-55h-55l69 -82q0 -28 -69 -28v-27q69 -4 69 -41l-14 -28q14 -24 14 -54q0 -14 -14 -14l14 -28v-13q0 -28 -69 -28q0 -19 69 -41q13 -24 13 -55q0 -82 -55 -82q-41 0 -41 -27q21 -14 83 -14
v-41l-14 -28q27 -4 27 -27q0 -27 -27 -27q27 -79 27 -179l-27 -13h-96l-14 54h-14v-27q28 -45 28 -69h27l41 28h28q61 -55 68 -55l-13 -69v-27q41 0 41 -27v-28q-55 0 -55 -27v-14q45 27 69 27q0 -18 82 -82v-27h41q50 0 123 -55q53 41 83 41q0 -21 54 -55q0 69 192 69h14
q0 -14 14 -14q-41 69 -41 110v27q13 41 82 41q27 -13 41 -13q0 27 14 27q-28 50 -28 110q23 62 83 96h41q79 -45 109 -96v-41q0 -69 -41 -69v-69q0 -77 -178 -178q0 -99 -123 -137q-52 -55 -96 -55l-55 28q0 -20 -41 -41q-233 27 -261 27h-68l-55 41l-69 -14q-87 5 -178 96
l14 69v14q-110 0 -110 178q-14 0 -14 192h55v41q-109 36 -109 69q9 205 27 205q60 96 82 96h28v28l-96 -28q-23 37 -41 220q0 58 82 68v14q-55 55 -55 82q8 151 27 151h55v55l-55 13q0 -27 -27 -27h-151q-82 0 -137 137q4 28 27 28h110v-28l28 14h41v-28q45 28 82 28h27
q31 0 55 -14l69 28q36 -9 82 -69l27 14h14l28 -14q0 41 13 41l-13 28v13zM1527 1714l28 -69h27l27 14l-13 27v14l68 -14l69 42q94 -14 151 -14l27 14l96 -83v-27q-27 -55 -41 -55l14 -27v-28l-96 -27q-96 82 -96 109q0 18 -83 28v-28h28v-27l-69 14q51 -70 69 -192
q-28 -70 -28 -96q28 -4 28 -28q-14 -26 -14 -41q27 0 27 -41q0 -14 -13 -14l13 -68v-96q0 -22 -54 -55h-83q-26 5 -109 123v69q4 27 27 27q-27 45 -27 83l41 27l-82 206q0 66 -55 109q46 138 123 138v-14zM1349 1714h27q28 -4 28 -28v-54q-96 0 -96 -83h-41q-19 1 -55 69v41
q0 27 137 55z" />
    <glyph glyph-name="V" unicode="V" horiz-adv-x="2032" 
d="M225 1755h13q147 -61 247 -151h69l27 14l-14 68v14h28q45 -41 68 -41v-27q0 -28 -41 -28v-96q24 0 69 -27l-14 -69v-68q55 0 55 -14q0 -110 -41 -110l82 -55q0 -32 -110 -54v-14q179 -16 179 -178q39 -41 82 -41v-28q0 -27 -55 -27v-14q69 0 69 -27q0 -18 -96 -55
l-14 -69h14q77 82 109 82q0 -18 55 -96v-27q0 -27 -27 -27l-83 13h-13v-27q23 0 68 -41h82v-41l-27 -96q14 -27 14 -42q87 28 96 28v164q14 0 41 14l-14 69v27q109 96 178 96h14l14 -68q-67 -247 -110 -247l14 -69v-27q0 -25 -96 -69q27 -45 27 -82v-27q0 -42 -123 -42
l14 -27v-69q0 -20 -151 -68q-96 75 -96 151v13l14 96q-69 0 -69 42l14 27q-64 0 -96 178q13 0 13 14q-27 0 -41 96q23 0 41 96q27 14 42 14v27h-14l-41 -27h-14l-69 13v55q90 28 124 28v27h-124q-18 0 -54 82v124q-49 237 -165 342q27 103 27 110q-95 0 -95 137
q-90 -27 -124 -27h-96q-41 13 -41 82v27q0 28 137 42q4 27 28 27zM677 1755h55q0 -21 27 -55q27 14 41 14q27 -14 42 -14q-21 -55 -42 -55h-27q-14 0 -14 14l-27 -14q-19 0 -69 69q14 26 14 41zM1760 1755h14q41 0 41 -55q24 0 82 28q55 -14 55 -83q0 -30 -82 -82l-137 27
l-124 -164h-13q27 -69 27 -96q-17 0 -55 -96q-20 0 -55 -41h-54l-14 68v96q47 0 55 110l-14 28v54l41 55q-64 20 -123 69q-69 -19 -69 -55h-27q-20 0 -41 41v27q0 28 109 42q0 13 14 13q60 -1 137 -55q0 24 165 55h13l28 -13q4 27 27 27z" />
    <glyph glyph-name="W" unicode="W" horiz-adv-x="2608" 
d="M1952 1741h41q14 0 14 -13q14 0 14 13q83 0 205 -68l137 55q165 -18 165 -69v-69q-41 0 -41 -41h-41q-54 0 -179 -123q-23 0 -54 -69l13 -27v-55q0 -27 -27 -27q0 -14 14 -14q0 -165 -151 -165q-55 14 -55 83q0 82 55 82l-28 41v41h28v69l27 41v14q0 96 -123 96v13
l-28 -13q-123 13 -123 96zM1116 1728q123 -60 123 -96q110 27 110 82l27 14q28 -5 28 -28l27 14q134 -41 151 -41l96 13l14 -27v-14q-25 -150 -96 -150h-14q-37 0 -41 68q-78 0 -96 -96q0 -35 41 -96v-27q-55 -61 -55 -69v-55h14q0 41 55 41q13 -26 13 -41l-13 -68
q41 0 41 -28v-13q0 -28 -28 -28h-13q-53 82 -69 82q0 -13 -68 -96h41l41 28q51 -72 137 -82v-69l14 -137h-14q5 -41 68 -96q0 -74 55 -110q0 -96 41 -96v-13l-54 -55q0 -19 68 -55q25 36 55 110q-14 18 -14 68q27 14 41 14l-13 27q0 79 109 96q7 55 42 55h41v-27l13 -83
q-8 -60 -68 -96q-60 -305 -206 -466q0 -109 -27 -109h-69q-82 0 -82 96q0 63 -41 192l41 27h27l28 -14l13 28v13h-123q-27 0 -27 41l13 69q-27 0 -27 27q14 122 14 151q-28 0 -28 28v41q7 0 55 14v27l-96 -14l-27 96q24 14 55 14v14q-65 0 -110 123q14 18 14 69
q-55 0 -55 41v55l13 27h-27q0 -173 -110 -206h-13l-28 96q39 0 82 302q-27 0 -27 41q14 27 14 41q-113 137 -124 137h-27l-41 -27h-55q-55 27 -55 82q0 69 206 124zM197 1700q55 0 55 -68h69q50 41 95 41h14q61 -55 69 -55q53 82 96 82q118 0 178 -123q0 -46 -206 -82
l14 -28q0 -41 -151 -55v-27l124 14l41 -55v-28q0 -27 -83 -27v-41q88 27 110 27l14 -27v-41l-28 -42q55 -20 55 -41v-137q0 -14 -13 -14l27 -54v-69q55 0 55 -27q0 -41 55 -41v-14q0 -34 -28 -124q55 -13 55 -82q-68 -92 -68 -137l27 -14h41q0 -68 28 -68q85 27 96 68
q-42 0 -42 41q0 142 110 179h41q28 -5 28 -28q-21 -140 -110 -205q0 -15 -14 -42h28v-27q-38 0 -165 -164q-27 -5 -27 -28v-14q82 0 82 -82q-27 0 -27 -55q-206 0 -206 137h14v14l-42 69l14 27q-14 27 -14 41q14 41 28 41q-14 24 -14 55h-14v-27h-41q-22 0 -55 96
q-54 0 -54 137q-14 0 -28 68l28 69q-69 0 -69 41v14l27 41q-54 21 -54 41v96q-55 0 -55 41l27 41v28q-21 0 -55 27q7 137 69 137v14q-110 0 -110 55q0 24 41 123q-60 0 -68 83q-27 27 -137 54l-14 28q0 123 137 123zM554 823h-110v-28h123q45 41 69 41v14h-41z" />
    <glyph glyph-name="X" unicode="X" horiz-adv-x="1854" 
d="M238 1728q157 -47 206 -83q55 0 55 -27v-28q-38 -37 -55 -137h-28q-85 110 -95 110l-192 -14l-69 69v27q43 83 178 83zM1486 1728h14q13 0 13 -14l28 14l68 -14l83 14q67 -61 82 -110q-10 -96 -124 -96l-137 41l28 -41v-41q-165 -14 -165 -151q-55 0 -68 -96l-96 -69h-41
q-28 0 -28 28q14 74 14 123v14q137 27 137 178q14 0 14 28l-83 54h-13q-13 0 -110 -27q0 27 -41 27v42q0 82 68 82l14 -28q45 28 82 28h83q107 0 123 -96h14q8 110 41 110zM814 1700l28 -41v-27q0 -42 -151 -55q0 -60 -55 -96v-14q27 -33 27 -55h28v28h41q27 -5 27 -28
l-55 -68q5 -28 28 -28q4 28 27 28h28v-28l-14 -68q123 -65 123 -165h28v-82l-28 -41v-14q5 -27 28 -27q49 0 96 68q19 0 41 -41q0 -27 -28 -27l14 -28v-13q0 -28 -55 -28v-14q55 -13 96 -13v-83q100 0 179 -246q82 0 82 -28v-41q0 -36 -178 -69v-27l82 -14q27 69 96 69h14
l-14 -69q44 -68 137 -68q41 0 96 -69q123 0 123 -123v-14q-192 -96 -205 -96q-124 31 -124 69q-150 -14 -192 -69l-55 28q-48 -14 -54 -14q-137 50 -137 137q33 27 54 27l83 -13q54 13 96 13v28h-28v27l41 55h-82q-69 106 -69 137l28 14h82v27l-27 41l-69 -13h-14
q-17 0 -54 96q-69 0 -69 27v28q0 27 69 27v41h-69q-94 60 -137 178v14h41q0 28 -82 28v27q0 25 123 41v55h-27l-69 -41l-68 13v28l13 27l-82 110l14 69v27q0 31 -14 55q14 26 14 41h-41v-14q13 -26 13 -41h-13l13 -27v-14q0 -20 -41 -41h-13q-16 0 -69 164q-20 0 -41 42v27
l68 14v13l-27 42v27q27 55 41 55l-14 27q5 28 28 28h14l41 -28q0 82 96 82zM732 672h68q28 -4 28 -28q-69 -50 -69 -68l-27 -41l27 -41v-14q-95 -151 -109 -151h-42q-27 0 -27 27v28l55 55l-14 82q90 63 110 151zM554 219h54q28 -4 28 -27v-27l-28 -42q35 0 69 -27h14l41 27
h14q21 0 54 -54v-42q0 -27 -27 -27h-41l-55 41q0 -14 -14 -41l-164 14h-69q0 32 -96 82v-14q69 -59 69 -109q-50 -28 -110 -28h-14q-54 55 -164 82l-14 28v55q0 34 55 41q34 0 151 -28q0 69 27 69l69 14q45 -28 82 -28h41q0 41 28 41z" />
    <glyph glyph-name="Y" unicode="Y" horiz-adv-x="1716" 
d="M225 1741h13q41 0 41 -55h96q83 0 83 -54h27v68q4 28 27 28l28 -14l68 14q20 -55 110 -55v-14q0 -27 -27 -27h-124q-13 -24 -13 -55q0 -55 41 -55v-41q-41 0 -41 -28q68 -49 68 -82v-41q55 0 55 -27q-14 -27 -14 -42q27 -13 41 -13v-28q-68 -71 -68 -123v-14h14
q9 0 68 69h14v-28l-14 -27q69 0 69 -41v-41l68 -110q28 0 28 -82h27q0 35 69 41q4 27 27 27h41v-41q-66 -110 -123 -110q14 -217 14 -260l-28 -14h-27v69h-14q0 -55 -96 -55q0 -32 178 -96v-14q0 -27 -55 -27q0 -28 42 -28v-82q41 -38 54 -110q25 14 137 28v-14l28 14h55
q21 0 55 -55v-27q0 -45 -138 -69q0 -14 -13 -14h-165q-31 0 -55 14q-73 -27 -150 -27v13q-27 -13 -42 -13q-274 0 -274 54v28q0 74 82 96q96 -17 96 -55h28q13 0 55 110h27v109h41v14q-41 0 -55 69l14 68v165q0 50 -68 109l54 69h-82v55q0 61 -82 123v14l14 68
q-55 0 -55 151q-14 0 -55 137l-28 -13q-123 91 -123 192q-82 60 -82 68q-45 -27 -82 -27h-28q-41 13 -41 82v14q0 34 151 55q0 13 14 13zM1376 1741h14q31 0 55 -13q24 13 55 13q19 0 41 -41l27 14q69 -19 69 -96q0 -46 -206 -69q0 14 -14 14q0 -18 -123 -123h-14
q-38 0 -55 137q-22 49 -109 55q-24 -14 -55 -14l-28 41q42 45 42 69h13l41 -28h69q33 28 55 28q105 -54 123 -69v82zM1047 1069h28q27 -4 27 -27v-14q-27 -33 -27 -55h-69q-27 0 -27 28q0 18 68 68z" />
    <glyph glyph-name="Z" unicode="Z" horiz-adv-x="1580" 
d="M252 1824q23 0 82 -96q14 0 14 -14q25 0 110 27q168 -13 192 -41q0 28 41 28q26 -14 41 -14q0 -31 -96 -55q-69 -27 -69 -69q0 -24 -137 -54q0 -41 -27 -41h-55q0 41 -27 41l-55 -96l13 -28q0 -41 -82 -41l14 -137q0 -27 -28 -27h-54q-28 0 -28 27v247q24 30 41 151
q23 68 55 68v69q0 21 55 55zM1075 1755h13q110 -73 110 -110l69 41h13l28 -13q0 41 151 41l13 -28v-13q-55 -110 -109 -110l13 -68q-53 -16 -96 -83q-55 0 -82 -109h-69v-14q42 0 42 -28v-27q-69 -50 -69 -82h-55q0 41 -27 41q-46 -69 -55 -69l41 -68v-14q-91 -45 -178 -274
q-77 -18 -137 -206l-83 -82h-41q0 68 -41 68q-14 -18 -14 -68q41 0 69 -55v-41q-70 0 -165 -219q0 -28 -54 -28v-27q0 -9 68 -69v-27q0 -28 -27 -28h-96q0 55 -28 55q0 -55 -41 -55l-68 14l-83 -14l-27 41v83q35 0 41 68q45 28 69 28v68q0 28 82 28l-14 68q44 2 124 110h13
l41 -28h14q0 46 -41 96v28h14l68 -14l14 28q-27 0 -27 27v41q82 0 109 165q77 0 165 233q0 68 110 68l-28 41v14q4 28 28 28q16 -14 82 -14q0 34 27 68q-82 0 -82 69l55 41l68 -14v14q-13 24 -13 55q54 0 82 178q20 0 41 41v14l-96 -14l-14 28v41q14 41 83 41zM1431 494h14
q21 0 55 -55v-14q0 -45 -69 -151q28 -4 28 -27q0 -71 -42 -82l14 -69v-14q0 -10 -96 -96h-82q-46 0 -69 14l-82 -14h-164l-42 28h-13v-28q-76 0 -192 -13q-27 13 -41 13q-23 -13 -69 -13v41q4 27 27 27q27 -14 42 -14q0 24 164 69q42 -14 82 -14v41h179l41 -27q0 31 55 41
q0 46 13 69l69 -14h82q-68 88 -68 151q4 27 27 27h14l41 -27q0 82 27 82l-13 27v28z" />
    <glyph glyph-name="bracketleft" unicode="[" horiz-adv-x="757" 
d="M540 1755q27 0 27 -41q28 0 28 41h27q41 -14 41 -82q0 -71 -41 -83h-55q0 36 -68 42v41q8 82 41 82zM115 1741h14l41 -27q24 14 55 14v-28q85 0 164 41l82 -13v-14q-49 -38 -68 -110q-85 0 -124 -123v-96q28 -97 28 -110q0 -41 -28 -96q27 -14 42 -14v-82q0 -27 -28 -27
h-14l-27 13l-14 -27v-14h83v-41l-42 -55q28 -4 28 -27v-14l-69 -109q0 -28 41 -28v-27h-41v-41h69l14 -83q0 -27 -42 -27l42 -55q0 -31 -14 -55q14 -26 14 -41l-55 -123h-41v-41l13 -28l28 14h13q20 0 42 -69q59 -9 82 -55q27 0 27 -13q-32 -96 -41 -96q-80 0 -137 41h-27
v-28h-42l-27 14q0 -27 -27 -27q-69 0 -69 137q23 14 69 14v54q-42 0 -42 96h28q-28 45 -28 83v82h42v27h-42v41l14 28q-27 0 -27 27q13 41 27 41l-27 124l27 14l-14 68q0 23 96 41v41l-41 -27h-27q-28 0 -28 27v110q0 31 14 55q-14 24 -14 55v68q0 28 42 28v27h-42v96
q83 53 83 69v13l-28 -13h-55v13q0 78 83 96q13 27 13 41h-109l-14 69q37 82 55 82zM567 165h41q60 -33 69 -69q-27 -69 -27 -96h-14q-31 0 -55 14q-24 -14 -55 -14q-27 45 -27 82v14q68 42 68 69z" />
    <glyph glyph-name="backslash" unicode="\" 
d="M197 1824q137 -31 137 -55v-14q-82 0 -82 -41q33 0 69 -41q4 27 27 27h41q0 -23 41 -68v-14q0 -28 -82 -28v-27q164 -9 164 -137q-19 0 -41 -41q14 0 14 -14l27 14q23 0 96 -192q69 -119 69 -178l-55 -42q-26 14 -41 14v-27q4 -28 27 -28l69 41q55 -27 55 -82h-14
q82 -123 96 -205h28v-28q0 -14 -14 -14l41 -68v-14l-27 -41v-14q82 0 82 -82q14 0 14 -14v-82h41v-110q0 -13 -14 -13q14 -55 55 -55q26 14 41 14q41 -93 41 -151q-27 0 -27 -28h-14l-137 -13q0 27 -28 27h-54l-69 -14v14q55 62 55 96q-55 21 -55 41t41 41l28 -13v96h-28
v-28h-41q0 34 -110 123q0 15 -41 138q28 0 28 27q-83 0 -83 96v27q0 28 55 28v27l-14 28l-27 -14h-14v14l28 41q0 37 -137 110l13 68q-68 9 -68 82q44 28 68 28v13q0 20 -41 42q0 -28 -55 -28q-41 50 -41 96l28 55q-49 0 -96 123l13 69q-31 127 -109 178q0 31 -110 124v54
q0 28 137 42z" />
    <glyph glyph-name="bracketright" unicode="]" horiz-adv-x="744" 
d="M101 1755h14q27 0 27 -41h14q0 41 27 41q29 -6 55 -69q0 -54 -96 -96h-27q-20 0 -41 42v96q4 27 27 27zM266 1741q13 0 13 -13l69 13q26 -27 164 -27v14h28q14 0 14 -14l54 27q55 0 55 -151v-13l-68 13h-55q0 -49 82 -68q28 -56 28 -82h-69l-27 13v-13q96 -65 96 -83
l-14 -27q14 -27 14 -41q-55 -21 -55 -41q55 0 55 -28l-14 -27l14 -69l-14 -27q14 -24 14 -55l-14 -27q14 -24 14 -55v-41l-69 -14q-27 14 -41 14v-14q4 -27 27 -27h69q0 -15 14 -42l-28 -68h14q0 14 14 14v-28l-14 -27l14 -28l-14 -55q14 -26 14 -41q-14 -26 -14 -41
q14 -26 14 -41q-55 -21 -55 -41q55 0 55 -41l-14 -28l14 -27q-28 -45 -28 -69q28 -4 28 -27q0 -19 -55 -96q13 -27 13 -41l28 14q27 -5 27 -28v-96q-34 0 -68 -27q-28 0 -28 27l-27 -14h-14l-41 28q-76 -41 -151 -41l-13 27l13 28q-27 0 -27 27v14q4 27 27 27v-27h14v27
q-14 0 -14 14q110 17 110 110h55v41h-41l-42 137v109h28v28q-41 0 -41 41q0 69 68 69h14v41h-27v27h27v41q-43 83 -69 83v13l28 41v28h-28v68h14q14 0 14 -13q26 13 41 13v41l-69 -13q0 46 -13 68l41 69q-28 50 -28 110q42 50 42 96v82q-38 109 -96 109q-46 0 -83 110
q-27 0 -27 28q14 0 14 13zM115 165h27q92 -54 96 -96q-27 -45 -27 -69q-31 0 -55 14q-24 -14 -55 -14q-41 9 -41 110q0 21 55 55z" />
    <glyph glyph-name="underscore" unicode="_" horiz-adv-x="1333" 
d="M170 219q201 -13 342 -54q12 0 110 13q25 0 124 -41q0 20 41 41q253 14 425 14h13q28 -4 28 -27v-110q0 -28 -82 -41l-138 13q-143 -13 -233 -13v13l-27 -13h-14q-69 0 -205 13q0 -54 -55 -54q-41 0 -41 54h-55q-46 0 -96 -41h-151q-62 55 -96 55v69q52 96 96 96
q14 0 14 13z" />
    <glyph glyph-name="a" unicode="a" horiz-adv-x="1099" 
d="M650 1138q26 -14 41 -14v-96l68 14q14 -54 41 -96v-68q42 0 42 -55q-14 -94 -14 -151h-82v-14q0 -11 82 -82v-28q0 -30 -14 -54q14 -24 14 -55h-14q14 -27 14 -41q0 -15 -14 -42l14 -82v-13l-55 -55l55 -41h27l55 41h55q55 -23 55 -96v-14q-41 -69 -96 -69v14
q-33 0 -247 -68q-24 30 -41 137l-28 13h-13q0 -150 -192 -150h-28q-46 0 -68 96q-82 0 -82 -42q-107 0 -165 165v41q0 14 55 41q-28 45 -28 82v42q96 96 165 96q45 -28 82 -28h41l14 -68q-123 -23 -123 -55v-28l41 28h14q19 0 41 -41q-21 -55 -41 -55h-42v27q-27 -4 -27 -27
q2 -30 137 -82v-14h123q21 0 55 151q22 0 55 54h-27v55h82v14l-27 41l27 41q-27 45 -27 83l-69 -14h-14l-13 68q14 0 41 14q24 -14 55 -14l13 28v68q0 20 -41 42q14 75 14 109q-80 125 -82 151l-28 -14h-14l-13 69q31 0 55 -14zM444 1083l27 -41v-41q-109 -58 -109 -96
l13 -82l-82 -69h-82q-96 0 -96 124q65 178 206 178q0 22 123 27z" />
    <glyph glyph-name="b" unicode="b" horiz-adv-x="1251" 
d="M403 1700q82 0 82 -123l-27 -41v-14q0 -31 13 -55l-13 -27q27 -45 27 -69q-103 -36 -110 -68v-14l96 -14v-14l-27 -41q4 -27 27 -27q0 -137 -55 -137v-14q0 -21 55 -55l-13 -68q0 -15 13 -41v-42h28v-54h-41v-110l13 -69h-13l13 -27v-82h-41v-14q0 -28 41 -28v-68
q-41 0 -41 -28q20 0 41 -41v-41q-41 0 -41 -27q27 -14 41 -14v-41q0 -95 137 -110v-68q0 -28 -27 -28h-14q-109 0 -109 55h-14v-27h-28q-45 0 -150 -41q-28 45 -28 82v41q41 50 41 96v41q0 34 -27 123q10 165 27 165q23 14 69 14v27h-14l-27 -14q-27 14 -41 14v14
q0 34 55 41v14q-69 0 -69 27v28q4 27 27 27h69v27h-69q-27 0 -27 28v41l27 41q-27 0 -27 28v54l14 69q-28 0 -28 27q5 28 28 28h68v27q-34 0 -96 96v69q0 27 55 27v14q-55 0 -55 27v14q0 27 41 27q27 -13 42 -13l13 27q-68 23 -68 69l13 68q-43 0 -109 -55q-75 0 -110 69
q5 46 123 151h96q35 0 124 27zM663 1069h83q32 0 109 -54q119 0 206 -165v-55l27 14h41q42 -14 42 -82q-42 -14 -42 -28l-68 14h-28q0 -18 124 -55q0 -96 14 -110l-28 -54q28 -98 28 -151l-55 -28q0 -25 27 -109q0 -112 -178 -137v-83l-55 -13l-27 13l-28 -13q-82 27 -82 54
q27 57 27 83h42l54 -41h14q-55 48 -55 96q55 63 55 96h14q20 0 41 -42l-14 -27l55 -14v14q0 88 -82 96l-28 68l42 69v27q-42 51 -42 96v55l28 41q-82 54 -82 220q-66 0 -206 164v14q4 27 27 27z" />
    <glyph glyph-name="c" unicode="c" horiz-adv-x="1113" 
d="M444 1097l96 -41l27 13q27 -13 41 -13v-28q-93 -59 -123 -96l-69 41v-27l14 -96h-82v-27q55 -4 55 -55q-55 -137 -82 -137q0 -20 41 -41l-14 -69l14 -27l-28 -55q61 -55 69 -55l-14 -96v-41q0 -33 165 -96q27 -58 27 -69l41 28h14q17 0 68 -83v-13q0 -25 -123 -55
q0 -20 -41 -41h-28q-27 0 -27 27v14l14 27q-36 11 -165 28v13q55 58 55 110h-14q-75 -96 -82 -96h-14q-18 0 -54 124q-69 0 -69 109q0 34 -41 165l14 68q-42 14 -42 83l14 54q-20 0 -41 42l69 109q41 0 41 28q-14 26 -14 41q20 0 41 41l-14 68q124 0 124 83v13h82
q33 28 55 28zM773 1069h14q13 0 13 -13l28 13h41q44 -57 110 -68q0 -44 41 -123v-28q-41 -45 -41 -68h-41q-92 0 -179 109v28l28 41q-96 27 -96 55v13q13 41 82 41zM938 233h68q27 0 27 -41l-82 -123q-55 0 -96 -42h-41v55q38 69 124 69v82z" />
    <glyph glyph-name="d" unicode="d" horiz-adv-x="1224" 
d="M814 1769h110l55 -192q-14 -41 -28 -41l14 -69v-82q0 -28 -41 -28v-13h27q-13 -72 -13 -83l13 -27l-13 -27q0 -15 13 -42l-13 -82v-14l13 -68h-13l13 -28v-27q0 -14 -13 -14l13 -27l-13 -69q13 -54 13 -96q-13 0 -13 -13q27 -5 27 -28v-27q-69 -59 -69 -110q0 -31 69 -41
v-123l-14 -69h-27l-28 14l-13 -28q82 -18 82 -41v-13q0 -28 -27 -28q13 -26 13 -41l28 14h68q96 0 96 -124q-19 -27 -219 -41q0 20 -41 41v-27q13 -27 13 -41q-44 -28 -68 -28q-110 10 -110 110q0 14 14 14q-55 82 -55 123q50 26 69 82q-28 64 -28 124q14 0 14 13
q-31 0 -41 69q20 14 82 14l-82 82v27l13 83q-13 24 -13 55h13q0 13 -13 13l13 69q0 44 -68 82v27q-31 0 -55 -13q-27 13 -41 13q-10 0 -82 -13q-69 17 -69 41v14q0 27 82 41q27 -14 41 -14q14 41 83 41l96 -14q0 69 55 69q4 -27 27 -27l27 41v13q0 28 -27 28h-14v-28h-41
q-38 0 -55 138v27q0 14 14 14l-14 27l14 28q-14 24 -14 54q14 27 14 42h27l96 -28q0 34 -137 69v13q-50 -27 -109 -27q-35 27 -69 27v55q0 19 82 82l165 -13q82 74 82 96zM238 987q83 -26 83 -233q-42 0 -42 -27v-83h-27v-27q41 0 41 -165q-138 -57 -151 -96v-13h55l55 55
h27q32 0 96 -192q69 0 192 -110q0 -110 -82 -110h-41q-128 46 -151 69q-100 0 -164 110q-14 0 -42 54v14q0 37 28 82q-55 19 -55 124l41 55q-20 0 -41 41q0 13 14 13l-14 69v27q82 75 82 302q61 41 96 41zM115 562l27 -14h14q0 42 41 42h14q-28 45 -28 82q-23 0 -68 -110z
" />
    <glyph glyph-name="e" unicode="e" horiz-adv-x="976" 
d="M334 1083h124v-14q0 -27 -110 -41l-69 -55v-68q-14 0 -41 -14q10 -86 83 -137l27 14h14q27 -4 27 -28v-13q0 -28 -41 -28l-27 14q-78 -41 -110 -41v-96q55 -46 55 -82l-69 -42q0 -36 96 -54q0 -96 178 -165l28 14l68 -14q24 14 55 14q4 -28 28 -28q36 55 68 55h28l-28 41
q14 27 14 41h68q42 9 42 96h13q28 -4 28 -27q0 -14 -14 -14q27 -117 27 -150q-10 0 -41 -42l14 -68q0 -55 -55 -82h-55l-27 13q0 -68 -110 -68q0 -9 -41 -28q-247 28 -247 83q-25 0 -68 82h-14q0 -28 -27 -28h-14q-110 74 -110 165q-35 0 -41 178q27 14 41 14v27
q-41 0 -41 28q0 27 41 27v14l-27 41v110q0 19 41 41l-14 27v28l69 109q31 0 41 69zM567 1083h83q96 -38 96 -55v-13l-28 -42q96 0 96 -41q69 -59 69 -219q-58 -41 -137 -41q-275 0 -275 41v27q24 0 69 42h27q31 0 55 -14q41 0 41 41h28l27 -14q7 55 41 55v14h-13
q-24 -14 -55 -14q-28 0 -28 28v13h28v41q-39 0 -124 110v41z" />
    <glyph glyph-name="f" unicode="f" horiz-adv-x="990" 
d="M581 1824q69 0 82 -55q103 27 124 27q51 -137 82 -137q41 0 41 -69q0 -25 -123 -68h-83q-27 0 -54 110q-96 27 -96 41q-45 -28 -83 -28h-55q-27 0 -27 28v13q83 124 96 124h27l42 -28q0 42 27 42zM307 1508l27 -13q24 13 55 13h14l-14 -164h-41q0 68 -27 68l-14 -68
q0 -55 96 -69v-14q0 -14 -14 -41l14 -96l-14 -55q27 -62 55 -68h14v27h68q0 -41 28 -41h13q0 41 69 41h55q0 -19 55 -55q-14 -95 -42 -95q-211 27 -260 27q0 -27 -82 -27v-83q54 0 54 -27q0 -14 -13 -14l27 -219q-27 0 -27 -83q22 0 55 -109q0 -55 -83 -55v-41l83 -55
q6 -55 41 -55q74 14 123 14q23 0 55 -82q0 -74 -233 -96q-27 0 -96 27q-74 -14 -123 -14h-28q-14 0 -14 14l-27 -14h-41q-28 0 -41 83l55 41h68q0 41 82 41v14q-41 0 -41 27v27q29 55 69 55l-69 124h-27v13q0 69 41 69v14l-27 41v13q0 8 54 69q-24 30 -41 137q-27 0 -27 55
q20 0 41 41q0 31 -96 55l-82 -14l-14 28v13q0 69 69 96q30 0 54 -13q69 0 96 96l-13 54q13 27 13 42q-27 0 -27 41v41h-14v27q5 28 28 28q0 13 -14 13l14 55l-14 69q33 27 55 27z" />
    <glyph glyph-name="g" unicode="g" horiz-adv-x="1347" 
d="M512 1097l42 -55q0 -76 -124 -96q0 -27 -82 -55v-41q27 -98 27 -110v-13q0 -11 -41 -41q0 -13 55 -83v-55h-41v-27h41v-27q0 -28 -55 -28q10 -50 124 -137l13 -27v-41l-68 -14l-151 68q-92 124 -110 124q-68 17 -68 41v68l27 42q-27 33 -27 54l13 69l-13 82q31 0 55 96
q139 178 164 178q53 14 110 14v-14q50 28 109 28zM883 1097h150q83 -9 83 -41l68 13h14q69 -35 69 -109q-19 0 -55 -110q-60 0 -110 -41h-14q-27 8 -137 206h-13q-42 -110 -69 -137v-28l27 14h14q96 -68 96 -274v-42q-24 -37 -55 -150q-41 0 -109 -96q-156 -55 -234 -55h-27
q-27 0 -27 27v14q27 55 82 55q0 -14 14 -14q10 96 54 96l-13 69v27l68 55q-55 55 -55 82q0 62 14 178q0 75 -96 137v69q4 27 28 27q25 0 178 -41q36 68 55 69zM211 247h14q9 0 68 -69q-5 -75 -55 -123q69 -6 69 -41h14q60 41 123 41l55 -28q4 28 27 28h14q27 -4 27 -28
l-13 -68h13q55 0 55 96h151l96 14l27 -42l28 14h82q98 -162 123 -178v-69q-53 -13 -109 -13v-14q68 0 68 -123q-27 -69 -41 -69l14 -27v-42q-141 -171 -288 -219h-14q-36 0 -68 69q0 28 151 109q0 106 96 124v27q-42 0 -42 28q14 41 28 41l-14 27v27l28 42q0 24 -151 54
q0 55 -14 55q-45 -27 -82 -27l-41 27q0 -19 -42 -41l-68 14q-76 -14 -110 -14l-55 28q0 -83 -123 -165q0 -41 -41 -41q27 -45 27 -69q0 -29 -96 -82h-41q-20 0 -41 41v14q73 159 206 274q-32 0 -137 55v27q4 28 27 28l-27 137q19 0 41 41q-28 0 -28 28v13q0 19 69 69z
M129 -507q275 0 342 -165h28v-27q-83 -14 -83 -41l-68 13q-27 -4 -27 -27l-55 14l-69 -14q-59 0 -137 151q36 88 69 96z" />
    <glyph glyph-name="h" unicode="h" horiz-adv-x="1347" 
d="M279 1769h42l41 -28l27 14q55 -21 55 -41v-41q0 -16 -82 -69l68 -55v-54h-82v-28l27 14q55 -21 55 -41v-28l-68 -13v-14q68 0 68 -28l-14 -137l14 -68q-96 -19 -96 -41q63 -27 69 -55v-14l-28 -41q55 0 55 -82h28q4 51 54 82h42q0 63 164 96q4 27 28 27l27 -13l27 13
q96 -25 96 -96q55 0 151 -123v-27q0 -23 -96 -42q-20 -54 -41 -54h-27q-24 0 -69 82l-206 55q0 -28 -27 -28q-24 14 -55 14q0 -27 -27 -27q-14 0 -14 13q-62 -22 -96 -82v-14l69 -68v-14h-55v-27h41l-14 -96q28 -116 28 -165q-34 -27 -55 -27v-28q55 0 55 -27l-14 -28
q14 -24 14 -54v-14q-80 -41 -124 -41v-28h14q31 0 55 14q55 -21 55 -41v-28h-28q28 -44 28 -68h13v55h14q14 0 14 -14q7 14 96 14q0 -41 27 -41v-55q-24 0 -68 -28l-69 14l-82 -14q-21 55 -41 55q0 -68 -124 -68q-54 13 -96 13l-27 -13q-55 20 -55 41v41q0 21 55 55l68 -41
q4 68 42 68q24 -14 54 -14q0 31 14 55q-45 41 -68 41v14q96 68 96 82q-35 0 -110 14q11 151 27 151l-13 27v69q0 14 13 14l-13 27v27h123q0 19 -82 42q0 27 -41 27v82h41v28h-55v68l-14 69h14l-14 27q0 15 14 41l-14 69l14 96l-14 27q14 27 14 41l-14 96l28 14
q-28 110 -28 178q49 55 124 55v28q-31 0 -55 13q-24 -13 -55 -13h-14l-27 13q0 -41 -28 -41h-27q-28 0 -28 28q0 50 165 109q4 28 27 28zM1047 836q0 -26 96 -96v-82q0 -24 -178 -164v-14h82q110 -10 110 -96q-28 0 -28 -41q14 -27 14 -41q-33 -28 -55 -28v-41h28v-14
l-28 -41q14 -26 14 -41q-14 0 -14 -14q28 -4 28 -27q46 0 109 41q20 0 42 -41v-69q0 -31 -138 -54q-13 0 -13 13l-137 -13h-96l-137 13q0 52 82 124q20 88 110 151v27h-14l-28 -14q-68 14 -68 55q0 19 82 82q-54 28 -82 28v41q0 8 55 68v42l-41 54v55q0 28 123 69
q0 68 82 68z" />
    <glyph glyph-name="i" unicode="i" horiz-adv-x="784" 
d="M321 1659h41l137 -14v-13q0 -31 -14 -55q55 -64 55 -82q-14 -27 -14 -42h-82q0 -82 -28 -82h-27q-67 113 -219 151v55q41 0 41 13v42q50 27 110 27zM485 1083q27 0 27 -41l-13 -27q13 -24 13 -55q-20 -55 -41 -55q0 14 -13 14l-14 -28q68 -8 68 -82l-13 -55q27 0 55 -110
q-79 -68 -138 -68q0 27 -27 27v-27q0 -82 55 -82l27 13q24 -13 55 -13v-28l-14 -27q42 0 42 -55l-14 -28v-41q-24 -13 -55 -13q-14 0 -14 13q-26 -13 -41 -13v-14q0 -27 110 -55v-41q-41 0 -96 -41q-68 -36 -69 -55v-14h41q19 0 69 69l69 -14l96 14l54 -69v-41
q0 -41 -54 -41l-96 14q0 -28 -28 -28h-96q-41 0 -41 83l-27 -14l13 -28v-27q-203 -14 -274 -14q-41 50 -41 96v28l82 13v-13q14 0 14 13l69 -13h27q0 65 82 109h69v28l-69 14q-26 -14 -41 -14q-55 69 -55 109q0 36 124 55v28h-55l-69 13v14q0 34 55 41v69l28 41
q-14 24 -14 55q14 0 14 14q-34 27 -55 27v55q0 14 13 14l-13 27v82l-96 -13h-41q-28 0 -28 41l55 68l69 -14l41 28l41 -28h14v55q30 0 95 55h69z" />
    <glyph glyph-name="j" unicode="j" horiz-adv-x="716" 
d="M499 1700q82 -48 82 -68q-14 -24 -14 -55l41 -55v-41q0 -21 -54 -41h-42q0 -69 -27 -69q-247 0 -247 151q-19 0 -41 41v41q31 0 55 14l-14 27v28q206 27 261 27zM471 1138l28 -41l27 14q37 -9 69 -69q0 -36 -55 -192q41 0 55 -206q-14 -41 -28 -41q28 -60 28 -123
q-31 0 -41 -55h-42v-41q69 0 83 -96q19 0 41 -41v-28h-28l14 -68l-82 -110q-82 -27 -82 -96q-57 0 -110 -14v-13q18 0 68 -69h14l-14 -96v-27q-43 0 -68 -96q-24 0 -123 -69h-28q-137 65 -137 178q69 42 69 110q21 0 96 82q44 0 137 69h13v27q-63 77 -68 179q14 26 14 41
l-28 14q28 103 28 191v14q41 0 41 28q0 23 -28 82h28v14q0 10 -41 41q0 23 27 82q-14 27 -14 41q14 76 14 110q-37 60 -165 137v41q0 34 151 69q18 -14 69 -14q0 31 68 41z" />
    <glyph glyph-name="k" unicode="k" horiz-adv-x="1360" 
d="M142 1728q47 0 110 -42q14 0 14 14q82 0 137 -68h41v41h14q27 -5 27 -28q-27 -45 -27 -82q54 0 54 -27v-41l-27 -42l27 -41v-27q-27 -28 -41 -178q-10 0 -41 -69v-14h14l41 28h27v-14q-13 -27 -13 -41l-69 14v-14q73 -73 82 -192l-13 -82q19 0 41 -41v-42q0 -45 -41 -96
v-13q55 -4 55 -55l-28 -14h-14q0 41 -27 41l-55 -55q82 0 82 -54v-28h14v41l96 -13v27l-55 14v13q5 28 28 28h41q0 -70 110 -124q0 -123 54 -123q86 0 151 -68q46 0 55 -96q91 -96 261 -96l13 -28v-68q-31 0 -55 -14q-128 17 -164 27q-24 -13 -55 -13h-14l-41 27
q-13 -41 -82 -41h-69q-27 0 -27 27q0 14 14 14l-14 27q0 28 41 28q-27 35 -82 164q-55 0 -124 96v28h28q0 27 -28 27h-68v14l27 41v14q-14 0 -41 13q0 -41 -41 -41v-41q55 -7 55 -41v-110l-14 -96q51 0 82 -27q72 14 83 14q55 -14 55 -83l-42 -27h-82q-56 0 -110 14
q-53 -14 -109 -14h-55q-20 0 -41 41v178l14 69q-42 0 -42 27v14l55 55v14q-55 0 -55 27v41h83v28q-41 0 -41 27v123q0 14 13 14q-13 27 -13 41l13 69l-27 -14h-14q-27 0 -27 28q6 28 68 54q-13 18 -27 192q26 14 41 14v27h-41q0 73 14 124q-14 72 -14 137v27q0 28 41 28v110
q-69 0 -69 27v68q-54 0 -96 42q0 -55 -41 -55h-13q-69 0 -69 27q24 124 82 124zM554 1714h41v-28h13l42 28h13q0 -36 41 -96q0 -28 -27 -28q-110 39 -110 55q-13 24 -13 55v14zM1116 1069q96 -17 96 -96v-27l-179 -151h-82v-82q-14 0 -41 -14q-54 14 -96 14q-45 -27 -82 -27
h-14l-14 68q87 87 165 124q47 160 233 178q0 13 14 13zM183 151q47 -11 83 -82v-55q0 -28 -28 -28h-137q-20 0 -41 41v42q27 34 27 68h42q30 0 54 14z" />
    <glyph glyph-name="l" unicode="l" horiz-adv-x="674" 
d="M266 1714h55v-41q6 0 54 13q41 -13 41 -27q0 -15 -13 -41l13 -82v-14l-68 -14v-13h68v-110q0 -28 -27 -28h-41l-27 14v-27h95l14 -69q-34 -27 -68 -27v-83q54 0 54 -27v-27q-13 -60 -13 -96q27 0 27 -69l-41 -55q41 0 41 -27v-28l-68 -54q0 -20 68 -42l14 -82v-219
q-96 -19 -96 -55q110 -28 110 -55v-41h-151l14 -27v-42h-55l13 -27q79 0 110 82h14l55 -27q-14 -112 -28 -137l28 -14q6 28 68 55q69 0 69 -124v-27q0 -20 -41 -41h-55q-36 41 -83 41l-82 69h-27q0 -55 -69 -55q-27 24 -27 109q14 0 14 14t-14 14l27 178q-27 0 -27 41l14 55
q-14 27 -14 41q20 0 41 41q-20 0 -41 41q23 83 96 83h14v13q0 20 -42 42l-41 -28h-13l-14 69v96q0 41 110 41q0 41 -110 55v54h68q0 28 -82 28v14l14 68h14l96 -27l13 27v14q-55 0 -55 27l-27 -13h-41v27l27 41q-27 0 -27 28v27q0 69 -14 206q53 13 110 13q0 22 -55 55
q0 -27 -27 -27q-8 0 -69 55l-41 -28q-22 0 -55 55v27q46 0 96 42h55v-83h14q0 41 41 41v124z" />
    <glyph glyph-name="m" unicode="m" horiz-adv-x="1991" 
d="M375 1097h55q0 -82 55 -82v-14q0 -14 -14 -14l14 -27q0 -41 -82 -41v-28h68l28 -13l-14 -96v-69q-55 -7 -55 -41v-14q41 0 41 -27v-14l-55 -14q0 -24 96 -68l-13 -55l13 -28q-13 -26 -13 -41q27 -4 27 -27v-55q0 -20 -41 -41h-27q-28 0 -28 27q-26 -13 -41 -13v-28
q88 0 96 -41v-27l-27 -41l205 -55l28 -55q-18 -69 -41 -69h-83q0 41 -27 41q0 -41 -82 -82q-83 10 -83 28l-96 -14h-137q-82 43 -82 151v13q0 35 55 42q35 0 96 -42q4 28 27 28l28 -14v28q-41 0 -41 41q13 26 13 41q-31 0 -41 68l28 55l-28 82q27 63 55 69h55q27 0 27 -41
h28v27q-1 22 -137 83q-14 24 -14 54q0 122 55 179q-46 68 -179 68q-27 45 -27 82v14q0 38 137 69h41q5 27 28 27h41l14 -55h13q41 0 41 69zM924 1069q66 -60 123 -137q41 0 41 -27v-14q0 -31 -13 -55q0 -13 13 -13l-13 -137v-69q-32 0 -55 -55v-55h55v-68h13v-55
q-21 -69 -96 -69h-13v-13q0 -21 54 -41v27h42l41 -41l-14 -69v-55q21 0 55 -41q0 35 55 41q55 -20 55 -41v-55q0 -19 -42 -41h-27q-27 0 -27 41q-51 -41 -96 -41l-28 14q-50 -27 -109 -27h-96q-83 0 -83 82l41 27l83 -13q27 45 27 82q-41 0 -41 68q0 83 41 83l-41 54v14
q0 34 55 41v14q-41 0 -41 27v83q0 10 41 41l-41 68v165l13 82q-23 69 -68 69l-96 -14l-28 41v14q96 68 220 68zM1459 1069q6 -54 41 -54q7 54 41 54q14 0 14 -13l27 13h14q27 0 27 -41v-41h55q0 -96 -55 -96l27 -41l-27 -55q27 0 27 -13l28 13q33 -27 55 -27
q-8 -137 -28 -137q28 -62 28 -179l-14 -27l14 -27q-14 -55 -69 -55q0 -28 69 -28v-41q0 -97 -28 -151l69 -13q4 27 27 27h14q32 0 96 -41l-14 -96v-27l-96 -14q-151 31 -151 55l-68 -14h-206q-19 0 -41 41v14l14 68l137 -13q0 13 14 13q-14 29 -28 151q14 24 14 55l69 -14
v28q-42 0 -42 27l14 28q0 30 -68 137q27 44 27 68q-14 27 -14 41q20 0 41 42l-41 54q41 61 41 96q-13 27 -13 42q19 0 41 41h-82q0 37 -96 54q-14 24 -14 55v14zM1184 1001q28 -4 28 -28v-41q-37 0 -83 -41q-27 0 -27 28q0 82 82 82z" />
    <glyph glyph-name="n" unicode="n" horiz-adv-x="1361" 
d="M718 1097l55 -14l27 14q97 -34 192 -137h14v-82q0 -44 55 -179l-28 -13h-27q-53 41 -82 41v-14q41 -45 41 -69l27 14q69 -14 69 -68q-28 -5 -28 -28q28 -4 28 -27l-14 -28q0 -7 41 -151q-27 -33 -27 -54h-69l-41 27v-41q14 -41 82 -41h42v-41l-14 -96l82 41
q137 0 137 -137l-96 -69q-96 14 -96 82h-13q0 -54 -55 -54q-43 0 -96 54l-41 -27h-41q-20 0 -42 41q23 220 55 220l-13 68l54 55q-96 0 -96 41v41q55 0 55 28q-19 0 -41 41q14 55 55 55q27 -14 41 -14v14l-82 54q0 36 41 96l-69 83l42 68l-55 55v-27h-14l-82 13
q-27 -13 -41 -13l-83 54v28q0 15 151 96zM334 1069q83 -41 96 -41v-123l-27 -41v-82h13v41h28q27 -5 27 -28q-41 -70 -41 -137v-96q0 -27 -68 -27v-14q68 0 68 -27v-275q0 -27 -68 -27v-14q68 0 68 -68l28 -14l68 14q55 -61 55 -69v-27q0 -21 -55 -41q-14 0 -14 13l-68 -13
q-137 0 -137 96v82h-14q0 -151 -14 -151l-123 -27q-96 17 -96 96l27 13h28q31 0 55 -13q55 9 68 68l-13 82v28h82v41q-55 0 -82 55v55h41v13q-28 0 -55 41l14 69v27l-14 69l27 14q55 -11 55 -28q24 14 55 14v27h-110q-27 0 -27 28v14l68 13h42v28q-88 0 -96 41q0 14 13 14
l-13 27v14q0 27 68 27v14h-68q-15 0 -42 -14q-82 0 -82 82q47 83 96 83q0 -14 14 -14q4 27 27 27h28q22 0 55 -96q24 -13 54 -13l14 27v27l-14 28l-27 -14q-20 0 -41 41v14q4 27 27 27z" />
    <glyph glyph-name="o" unicode="o" horiz-adv-x="1168" 
d="M663 1069q31 0 55 -13q27 13 41 13q192 -51 192 -178q63 0 137 -205v-42q-41 0 -41 -27v-27h28q0 -43 -28 -192q28 -5 28 -28v-68q-55 0 -69 -83q-24 0 -82 -150h-28l-27 13q-39 -82 -96 -82q-78 0 -96 151v41q51 82 69 82h13l28 -13v13q-28 0 -28 28v41q0 55 151 55
q0 16 -110 54v28q0 11 83 82q-55 0 -55 28v27l14 96q-28 0 -28 27v42q0 27 41 27v14q-60 0 -96 68v41q0 28 41 28q42 0 42 -41h13v13q-13 27 -13 41h-83v-27h-55v55l-27 -14h-27l-14 69zM307 1015q102 -17 109 -55v-14q-137 -156 -137 -164q45 -42 69 -42v-54h-41v-14h41
v-55h-69l14 -27l28 13q27 -4 27 -27v-14l-69 -55v-13l55 -14v-41q0 -14 -13 -14l13 -27v-14q0 -28 -41 -28v-13q69 0 69 -55q-14 -27 -14 -41q52 -82 137 -82q36 0 178 -138v-41h-27l-41 28q0 -41 -28 -41q-41 0 -41 13l-68 -13q-233 40 -233 205q-86 0 -151 192l13 69
l-27 68q17 165 41 165l-14 27v28q0 13 110 96v137q24 0 82 -28q0 83 28 83z" />
    <glyph glyph-name="p" unicode="p" horiz-adv-x="1237" 
d="M334 1042h69q82 -9 82 -41v-41h-55q82 -102 82 -151v-14q-41 0 -41 -27l28 -41v-14q-41 0 -41 -27v-28q41 -50 41 -96v-27q0 -28 -41 -28v-82l41 -55v-27q0 -28 -41 -28v-13l27 -41v-14q0 -28 -27 -28q0 -12 54 -82q0 -219 -68 -219q82 -128 82 -192q-38 0 -55 -110
q18 0 69 -68h14l68 41h41l83 -110v-27q0 -42 -151 -42h-14q-27 0 -27 42l-42 -28h-54q-32 20 -179 55l-13 27q13 122 13 151q-27 89 -27 124l27 13l-13 69l13 27q-27 0 -27 28v13q4 28 27 28l-13 68v96q14 0 41 14q68 0 68 -82h28v27q-28 42 -41 96l-28 -13h-27
q-20 0 -41 41q3 68 27 68l-14 28v41h42v13l-83 124v27h14q14 0 14 -13q26 13 41 13v14q-22 0 -55 27l14 69v137h82q27 0 27 28v27h-96q-27 0 -27 55h-27q0 -55 -96 -55q-69 48 -69 137v14h82l28 -14q25 69 109 69q0 -14 14 -14q0 20 41 41zM800 1015q184 -77 206 -137
q51 -5 82 -55v-83l-13 -27q82 -28 82 -55v-14q0 -31 -69 -41v-13q55 0 55 -42q-14 -26 -14 -41q14 -26 14 -41l-27 -14l-69 55v-13q14 -27 14 -42q-27 -13 -41 -13v-28q123 0 123 -123q0 -20 -41 -41l14 -69q0 -27 -28 -27h-41q-19 0 -82 82q4 28 27 28l69 -28v28
q-123 24 -123 68q0 41 27 110q-25 0 -41 123l14 28q-28 44 -28 68q19 0 55 110q-15 56 -110 137l-13 -27v-14q54 -61 54 -69v-13h-68q0 52 -96 137v41q28 55 68 55zM924 261q23 0 96 -192q0 -28 -28 -28l-96 14q0 -55 -82 -55q-26 14 -41 14q0 -28 -27 -28h-28q-27 0 -27 28
v55q4 27 27 27h28v-27q45 11 178 192zM115 -398h68q22 0 55 -54v-83q0 -27 -27 -27h-28q-68 0 -96 68v69q5 27 28 27z" />
    <glyph glyph-name="q" unicode="q" horiz-adv-x="1223" 
d="M321 1056h41q96 0 96 -96q-69 -23 -69 -69l-123 14v-27h82v-55q0 -28 -55 -28v-27q41 0 55 -124q14 0 14 -13h-14q14 -27 14 -41q-33 -96 -55 -96q-48 0 -96 54h-55q61 -67 192 -109q0 -32 41 -83v-13q0 -50 -55 -110v-14q108 0 233 -82q69 -27 69 -82q0 -69 -110 -69
h-27q-46 0 -96 41q-31 0 -55 -13q-65 0 -96 96q-151 36 -151 151q-14 30 -41 205h55l27 -14v42q-82 0 -82 27v96q4 27 27 27l55 -41q0 51 28 83q-96 0 -96 82v27h41l68 -13l-82 68v14q9 41 110 41v123h82l14 -55h14v83zM869 1042h14q18 0 82 -110l-55 -54q0 -28 55 -28v-14
q0 -41 -82 -41v-27l68 14h14q0 -35 14 -110q-11 0 -41 -41l13 -28v-13l-41 -55q20 0 41 -41v-42q-82 -13 -82 -41h14q45 28 82 28q27 -5 27 -28v-96q0 -10 -41 -41q28 -41 28 -96t-14 -55l14 -137v-301q0 -28 -69 -28v-13q33 0 110 -42q4 28 27 28h55q41 -14 41 -82
q-75 -69 -96 -69l-68 14l-137 -14q0 27 -28 27q0 -19 -41 -41h-110q-106 0 -137 69v41q38 69 124 69q12 0 82 -55h41q0 64 27 96q-54 20 -54 41v96q6 0 54 13v28q-68 0 -68 206q-14 0 -14 13q28 85 28 110l-55 14v55q0 20 55 41q-14 54 -55 54q0 79 96 110l68 -14v14
q0 9 -137 137q0 110 82 110h14v14l-123 109v28h68l83 -55l13 27v42h-82q-20 0 -41 41v13q27 32 27 83h69z" />
    <glyph glyph-name="r" unicode="r" horiz-adv-x="963" 
d="M787 1083h13q68 -36 69 -55v-13l-14 -69q28 -4 28 -27v-28q0 -13 -69 -82q-247 0 -247 82q0 34 110 110q44 82 110 82zM403 1056q62 -27 68 -55v-96q0 -27 -41 -27v-14q55 -78 55 -110q0 -137 -55 -137q0 -27 55 -27v-124q-69 -60 -69 -68h69l-14 -69q28 -4 28 -27
l-14 -165h27l83 69h13q52 -15 83 -110h27v-41q0 -82 -96 -82q-13 0 -82 54q-14 -41 -82 -41h-42l-54 41h-83q-48 -54 -96 -54q-109 0 -109 123v41q0 22 55 55q52 0 123 -69q0 62 14 83l68 -14h55l-14 27q14 24 14 55q-58 -55 -110 -55h-13q-32 0 -41 69h13l-13 27
q0 11 13 83l-13 82l41 27l27 -13q82 53 82 68h-27q-45 -27 -82 -27h-14q-27 0 -27 27v41h27q-14 27 -14 41q28 88 28 110q-28 0 -28 41q14 27 14 41q-60 -41 -96 -41q-82 0 -96 110v27q27 55 82 55l83 -14q0 20 41 42h27l41 -28q14 69 69 69z" />
    <glyph glyph-name="s" unicode="s" horiz-adv-x="881" 
d="M499 1083h27q128 0 192 -96q41 0 41 -27l-13 -55q41 -63 41 -82q-16 -69 -110 -69q-55 21 -55 41v14q0 41 82 41v28h-13q-48 -14 -55 -14q-41 0 -41 41h-96q-41 14 -41 82v55q0 20 41 41zM293 1056q55 -21 55 -41q0 -33 -82 -179q22 0 55 -96q30 -49 68 -54l14 -55h13
l42 27h13q123 -82 192 -82l-13 -69l27 14h69v-151q54 -70 54 -178q-19 0 -41 -41l14 -28q-21 -54 -41 -54h-14q-96 0 -96 123l-68 192l-55 41l-41 -27q-92 78 -220 82l-41 68l-27 -13h-14q-27 0 -41 96l68 13q28 0 28 -54h14q45 41 68 41v27l-96 14l14 27l-28 14
q-41 -69 -96 -69l-27 42q0 178 69 178l-14 27q33 39 55 110q105 55 123 55zM115 343h41q41 0 82 -151q-13 0 -13 -14q54 0 54 -68l96 13h83q82 -8 82 -41v-41q0 -32 -192 -68h-41q-220 66 -220 123v137q0 31 -13 55q20 55 41 55z" />
    <glyph glyph-name="t" unicode="t" horiz-adv-x="1004" 
d="M458 1303l13 -69v-14q-137 -122 -137 -137h28q45 28 82 28l14 -55q-14 0 -14 -14q123 0 123 -27v-83q-22 -54 -96 -54h-13v13q4 28 27 28q-11 54 -27 54q-27 -13 -42 -13v-41l-13 -69q82 -38 82 -164q-14 -72 -14 -83l14 -27q-14 -27 -14 -41l14 -69q0 -14 -14 -14
l14 -96v-68l-14 -165q59 -41 110 -41q24 14 55 14q14 -27 14 -41h13q58 55 110 55h96q41 -14 41 -83v-27q0 -20 -41 -41h-96q-33 27 -55 27q-26 -13 -41 -13q0 19 -41 41q0 -28 -28 -28h-41q-68 0 -205 14q0 13 -96 123l-14 83q0 41 69 41v27l-28 -13h-14q-24 0 -41 123
q0 41 41 41v14q0 31 -13 55v41l-28 13l14 69v123q0 31 -14 55q14 69 69 69q-69 36 -69 109h-27q0 -41 -41 -41l-28 14l-27 -14q-55 21 -55 41v14q40 0 96 82h41q0 -41 28 -41h41q27 0 27 28v13q-68 0 -68 28v41l13 27l69 -13h14v41q-28 33 -28 55q14 26 14 41h14zM828 1097
q96 -32 96 -178l-55 -41q-233 32 -233 68v27q87 124 192 124zM403 356q0 -68 -28 -68h-13v-41q30 0 54 -14q28 56 28 82q-14 27 -14 41h-27z" />
    <glyph glyph-name="u" unicode="u" horiz-adv-x="1401" 
d="M156 1083h41l41 -27h28l41 27h14q0 -14 13 -41q-13 -24 -13 -55q27 -4 27 -27v-14l-14 -27l69 -14h55q0 -15 13 -41q0 -28 -68 -55q-14 -27 -14 -41q84 0 110 -124l-28 -13h-27q-37 0 -41 68l-28 -13q32 -94 96 -138q0 -41 28 -41v-55h-28q0 -27 41 -27v-27
q0 -28 -41 -28v-27q41 0 41 -28l-41 -54q55 0 83 -55l-14 -28q27 0 27 -13l28 13h68q23 0 41 -96h28v-82l-69 -14h-41q-58 55 -110 55h-109q-23 0 -124 137l-54 165q1 61 54 123q-27 0 -27 28q7 126 41 164l-41 69v13q0 31 14 55q-21 31 -41 165h-138q-27 0 -27 27v41
q22 55 96 55zM403 1083q96 -52 96 -68v-14q-28 -34 -28 -55h-41q-82 35 -82 110v13q7 0 55 14zM718 1083h82v-27h69q97 27 110 27h13q83 -27 83 -96l-14 -27l14 -28q-14 -24 -14 -54q41 0 41 -55q-82 -18 -82 -41v-14q68 0 68 -165v-164q0 -50 -13 -124q13 -22 13 -68
q-67 -36 -68 -55l13 -27q118 13 165 68h14q38 0 109 -55q0 -75 -82 -109h-68q-14 0 -14 13q-51 -41 -206 -55q0 -13 -13 -13h-42q-68 34 -68 123l27 14q-27 95 -27 164q55 0 55 69h82v27l-82 14v41l27 41q-34 0 -68 28l27 164q-14 72 -14 137q28 0 28 28q-28 0 -28 27v14
l55 55v27h-14q-30 0 -54 -14q-85 28 -110 28q0 -28 -28 -28q-26 14 -41 14v41q0 22 55 55z" />
    <glyph glyph-name="v" unicode="v" horiz-adv-x="1279" 
d="M1047 1097q151 -50 151 -137v-28q0 -27 -27 -27q-44 0 -110 55q0 -14 -14 -14l14 -27v-28q-40 -95 -96 -164q14 -27 14 -41l-41 -28h-14q-28 0 -28 28v54h28q0 31 -14 55q14 24 14 55q-31 0 -55 96l-27 -14h-14q-45 41 -69 41q0 72 69 110q83 -55 110 -55zM197 1069
q96 -27 96 -68h82v41h179l13 -96l-123 -41v-27q41 0 41 -28v-27q-41 0 -41 -28h27v-82h41v-41q-41 0 -41 -28q83 -32 83 -54v-28h-28v-14l41 -54v-28l-41 -55q14 -96 41 -96h14v14l-14 69l41 27q20 0 42 -41l-14 -69l27 -13h14q0 96 69 96q0 41 41 41q62 -27 68 -55
q0 -22 -55 -55l-27 14v-14q27 -55 27 -96q-54 -27 -54 -41l27 -55q-18 -178 -96 -178h-27q-14 0 -14 14l-28 -14q-68 0 -123 219q-45 0 -82 110v55l68 55v41h-13q0 -55 -42 -55h-13q-60 49 -137 398q-35 0 -41 54q13 27 13 42q-55 8 -55 95h-13q0 -68 -41 -68q-69 19 -69 96
v27l55 14q0 -14 14 -14q0 32 68 41z" />
    <glyph glyph-name="w" unicode="w" horiz-adv-x="1703" 
d="M1513 1138h14l96 -27v-151q-48 -14 -55 -14l-27 41q-27 -14 -41 -14v-13l27 -41v-14q-55 -36 -55 -69q0 -19 -82 -82v-14q27 -4 27 -27v-55q0 -27 -27 -27h-41q-20 0 -41 41v41l27 41l-27 41q41 45 41 69q0 96 -96 137q-14 24 -14 55l82 68h28q27 0 27 -41q137 0 137 55z
M1020 1097q55 -55 82 -55v-69h-82q0 -20 -41 -54h41v-69q0 -27 -41 -27v-14q32 0 82 -69q0 -27 -41 -27q-27 14 -41 14q0 -36 96 -55q74 -247 96 -247l54 27l-13 28v41h27q110 -17 110 -96q-14 -41 -28 -41l14 -69v-41q-46 0 -55 -82q-151 0 -151 -41q69 0 69 -110
q-14 -26 -14 -41h-82q-23 0 -82 137l13 82q-41 0 -41 69l14 68q-96 139 -96 206h-14q-65 -31 -82 -110h-27q-28 0 -28 28q36 206 110 206v123q0 27 -41 27v83h41v13q-96 28 -96 55l-27 -14h-14q0 24 -41 69v27l68 14q15 0 41 -14l83 14h41q27 0 27 -41h28q6 55 41 55z
M170 1083h82q110 -56 110 -110h13q0 55 41 69q14 41 83 41q0 -9 68 -68v-28q0 -27 -27 -27h-14q-27 0 -27 41q-27 -14 -41 -14q7 -86 54 -137v-27h-27v-28q32 0 41 -82h28v-41h-42v-14q0 -10 110 -110q0 -27 -41 -27v-69h82q0 -33 83 -96l27 -41q0 -8 -82 -82q55 0 55 -27
v-14q0 -20 -42 -41l14 -28v-13q0 -110 -68 -110q-87 28 -124 137q-26 14 -41 14q9 110 27 110l-13 27q0 55 68 55v27l-55 14q0 -28 -27 -28q-24 14 -55 14v96q0 37 28 82h-96q-43 205 -110 288v14q0 28 41 28v41q-46 0 -82 41l-82 -14q-69 23 -69 69q0 29 110 68z" />
    <glyph glyph-name="x" unicode="x" horiz-adv-x="1169" 
d="M732 1111h41q41 0 41 -55q163 41 192 41q69 -48 69 -137q-14 -27 -14 -41q-70 0 -165 27q0 -123 -123 -192h-27v41q0 46 41 96v28q-69 41 -69 68l-41 -27h-14q-27 0 -27 27v28q68 53 68 82zM211 1083h14l41 -27l27 13l82 -13q5 27 28 27h13q9 0 83 -82v27h55v-55
q0 -27 -28 -27h-41q0 -20 -55 -55h55v-41l-69 -14v-13h110q0 -73 110 -179v-13h27q0 68 28 68q55 -20 55 -41v-27q-61 0 -83 -83l-27 -13q0 -36 82 -83q0 -27 82 -82v-14l-27 -41l151 -150v-42q0 -27 -41 -27v-14h13q24 14 55 14l14 -27v-42q0 -27 -27 -27q-234 0 -234 55
v14q42 0 42 27q-96 0 -96 82q-19 74 -55 96q0 40 -41 110q0 41 -28 41v27h28v42q-69 0 -69 27q0 32 -110 165q0 8 -13 178h-14q0 -82 -55 -82q-23 137 -137 137q-96 0 -96 82v14q0 31 151 68zM444 494h14q41 -14 41 -83v-27q-15 0 -41 -14q-37 5 -55 69q20 55 41 55z
M416 329v-55q-82 -92 -82 -123q16 -69 110 -69v-68h-219l-69 13q0 -27 -27 -27h-14q-55 28 -55 69q14 26 14 41l82 -14q77 0 137 192q25 0 123 41zM1047 110q21 0 41 -55q-13 -55 -55 -55q-54 14 -54 82v14z" />
    <glyph glyph-name="y" unicode="y" horiz-adv-x="1347" 
d="M883 1097h41q82 0 82 -55q22 0 82 55h83q96 0 96 -82q0 -55 -110 -55q27 -45 27 -82l-137 -96q28 -45 28 -83v-41q-14 -41 -83 -41h-27q-46 69 -69 69v96q55 0 55 54q-13 27 -13 42l27 13q-14 27 -14 41h-41q-68 0 -68 28l-28 -14h-14q-19 0 -41 41v14q51 96 124 96z
M74 1083l96 -14h82q43 -41 96 -54q14 -27 14 -42q21 28 137 96h27q19 0 82 -82q0 -27 -27 -27h-27l-42 27q-21 -76 -123 -219h-55q-137 157 -137 233q-44 -28 -68 -28q-63 27 -69 55v28zM471 590h41q16 -97 110 -151q0 -79 41 -151l-13 -82q4 -28 27 -28q0 28 96 96
q0 37 69 41l-14 28v13q4 28 27 28h14l14 -55l-28 -14l14 -27v-27l-82 -165v-82q-46 0 -83 -220q-18 -60 -68 -82q0 -27 -28 -27h-41q-55 0 -55 164v41q15 0 42 14q26 -14 41 -14q-83 46 -83 96q-35 146 -68 179v27l55 55q-83 0 -83 96q-54 89 -54 178h13q39 0 96 69z
M238 -398q31 0 55 -13q24 13 55 13q27 -44 27 -68q-33 -28 -54 -28l-28 14q-24 -14 -55 -14q-27 0 -27 28v41q4 27 27 27zM485 -398q63 -26 69 -54q-33 -120 -83 -192q0 -55 -55 -55q-26 13 -41 13q-13 -26 -13 -41h-28q-30 25 -151 41l-41 55v110l55 14l55 -14l69 14
q24 -14 54 -14q0 108 110 123z" />
    <glyph glyph-name="z" unicode="z" horiz-adv-x="1072" 
d="M170 1083q19 0 41 -41l27 14l137 -14v-55q-98 0 -150 -109q-20 0 -42 -42v-13l42 -55v-14q0 -31 -69 -41q-96 0 -96 96v110l69 13l-42 96q14 55 83 55zM814 1083q82 -32 82 -55v-55q0 -18 -82 -41q0 -27 -55 -27l14 -27q-14 -27 -14 -42q28 -4 28 -27v-41h-69l-55 41h-13
q0 -27 -69 -27v-28h96q27 -4 27 -27q0 -20 -41 -41l-27 13v-27h27v-41q-48 -14 -55 -14q0 14 -13 14q0 -22 -28 -55q28 -4 28 -28q-110 -91 -110 -192v-27q-37 0 -69 -123q-33 0 -95 -124v-27h13q72 68 96 68q160 -63 178 -82v-14q0 -27 -41 -27q-14 0 -41 14l-68 -14
l-28 14l-27 -14q-55 11 -55 27q-45 -27 -82 -27v14l-28 -14h-96q-41 0 -55 123l96 55l-13 28v13q65 124 82 124q0 72 123 205q77 0 96 165q26 0 69 110h55q0 31 -14 55q14 24 14 54h27l41 -27v27q0 28 -27 28h-28q-27 0 -27 -41h-69q-71 0 -82 41q0 28 178 82q0 14 14 14
q45 -14 96 -14q0 32 96 41zM883 411q77 0 96 -68q-14 -27 -14 -41q27 -5 27 -28v-27q-37 -110 -82 -110v-14q41 -53 41 -82l-41 -27h-110q-41 13 -41 82v69q0 27 41 27l-13 69q55 0 55 13l-14 96z" />
    <glyph glyph-name="bar" unicode="|" horiz-adv-x="401" 
d="M211 1481q0 -21 110 -96v-14q0 -188 -42 -233l14 -69q-11 0 -41 -41l14 -27v-28l-55 28l-14 -28v-13q96 -53 96 -220q0 -114 14 -123q-14 -74 -14 -123v-151q0 -79 14 -220q-18 -68 -41 -68h-124q-32 0 -41 96q14 187 14 233l-28 68l28 426q-55 20 -55 41v54
q58 38 69 138l-14 27q27 56 27 82q-13 27 -13 41h-14v-27h-14q-41 14 -41 82q39 165 151 165z" />
    <glyph glyph-name="cent" unicode="&#xa2;" horiz-adv-x="1730" 
d="M965 2016q41 -81 41 -138q-14 -323 -14 -438l-13 -28q41 -77 41 -178q-21 0 -41 -55q13 -75 13 -110q-27 -45 -27 -82v-14q27 -27 41 -191q-14 -72 -14 -138v-41q83 0 83 -96v-41q0 -96 -151 -96q-63 0 -137 192q-20 0 -41 41v14q0 14 13 14q0 13 -55 82v165q0 12 28 109
q-22 0 -55 55v27l41 55l-14 96q0 21 42 165v96q-33 0 -110 55l-14 -69q28 -4 28 -27v-55l-28 -41l-68 13h-42v-41q83 0 83 -82v-27q-55 -52 -69 -151q-33 -28 -55 -28v-13q69 -61 69 -69l-28 -41v-27l28 -42v-13l-41 -83q96 -65 96 -82v-55l-14 -164q155 -93 261 -124
l13 -27l69 14q54 -5 123 -124q55 -20 55 -41v-27l-123 -151v-14q27 -133 27 -151v-68q0 -19 -68 -69h-14l-28 14l14 96v14q0 27 -27 27q-74 -14 -124 -14l-55 83q42 53 42 82l-14 68h27v42l-13 27l-28 -14l-27 14v-41q-28 0 -28 41q-10 0 -82 -14q-82 14 -82 41v14l82 96v41
q0 28 -27 28q-24 0 -96 -151h-83q0 205 -150 205q-32 202 -83 371v41l28 41q-83 91 -83 137q0 27 28 96q-22 0 -55 55v27q0 9 69 69q-14 24 -14 55q44 33 110 55l-14 68q0 8 55 69l-14 96l41 27h123q20 0 42 41q-14 24 -14 55q41 27 96 41q26 -14 41 -14q65 42 137 55
q0 94 96 151q69 124 151 124zM1212 1686q31 0 55 -13q24 13 54 13h55q27 0 55 -82q27 14 41 14q96 0 96 -137q55 0 55 -124l-110 -109q-161 0 -246 109q-69 28 -69 96q0 42 41 42v27q-164 41 -164 96q20 68 137 68zM279 1083q0 -17 -68 -82l96 -14q0 69 55 69v27h-83z
M1596 562q54 -20 54 -41v-27q0 -20 -41 -42h-27q-20 0 -41 42v27q0 21 55 41zM1527 439h41l69 -14v-27q0 -43 -96 -165q0 -13 -165 -82q0 -28 -27 -28h-41q-28 0 -28 28v55q53 96 206 96v96q0 19 41 41z" />
    <glyph glyph-name="sterling" unicode="&#xa3;" horiz-adv-x="1470" 
d="M677 1782q103 -54 123 -54q27 13 42 13q26 -13 41 -13v-28l-124 -82v-28h-13q-46 0 -96 42v-14q13 -74 13 -123q-13 0 -13 -14l-69 14h-14v-42q55 0 55 -27v-55q-68 -86 -82 -137q14 -104 41 -137q0 -37 -27 -82l41 -28l96 14v-14q13 0 13 14l69 -14l96 14q4 -28 27 -28
v28h69q27 -4 27 -28v-27q0 -19 -123 -110v-27q-69 27 -96 27l-165 -109q-65 -162 -178 -233l-27 13q-24 -13 -55 -13v41q21 0 68 109h28v28l-96 68l-14 96h-27q-34 -27 -55 -27l-27 14q-71 -28 -110 -28q-41 50 -41 96v55q27 0 68 55h83l54 -41h28l-14 27v41l28 41
q-69 67 -69 261q16 0 55 110q55 0 55 96h27l-14 96q50 27 110 27q0 -14 14 -14l27 41q-14 27 -14 42q45 27 83 27q13 0 13 -14zM1061 1741h137q27 0 27 -55h69q27 -4 27 -27v-69q46 0 55 -82q-22 -62 -82 -96h-27q-147 0 -206 165q20 0 41 41l-123 41v41q13 41 82 41z
M1253 494q96 0 137 -96l-14 -96q14 -27 14 -41q-18 0 -110 -110l14 -69l-82 -109h-69q-86 79 -247 150q0 60 -54 83q0 -14 -14 -14l14 -27v-55q0 -58 -316 -69q0 -41 -192 -41h-192q-82 35 -82 110v13q0 73 82 138l-13 27v41q91 137 164 137h82q68 -36 69 -55
q-24 -55 -55 -55v-13l14 -28q198 41 260 41h96q31 0 55 14q61 0 96 -82l28 14h82q0 54 41 54q98 -13 110 -13v13l-42 69q0 41 124 69z" />
    <glyph glyph-name="quoteleft" unicode="&#x2018;" horiz-adv-x="373" 
d="M211 1355h-13q-96 0 -138 110q28 45 28 82h68l42 -27q26 13 41 13l41 -82v-82h-41l-28 13v-27zM129 1574q-27 14 -41 14v96q104 137 123 137h28q21 0 54 -55v-13q-68 -51 -68 -69q0 -35 -55 -55q-7 -55 -41 -55z" />
    <glyph glyph-name="quoteright" unicode="&#x2019;" horiz-adv-x="373" 
d="M142 1821h13q96 0 138 -110q-28 -45 -28 -82h-68l-42 27q-26 -13 -41 -13l-41 82v82h41l28 -13v27zM224 1602q27 -14 41 -14v-96q-104 -137 -123 -137h-28q-21 0 -54 55v13q68 51 68 69q0 35 55 55q7 55 41 55z" />
    <glyph glyph-name="quotedblleft" unicode="&#x201c;" horiz-adv-x="699" 
d="M211 1355h-13q-96 0 -138 110q28 45 28 82h68l42 -27q26 13 41 13l41 -82v-82h-41l-28 13v-27zM129 1574q-27 14 -41 14v96q104 137 123 137h28q21 0 54 -55v-13q-68 -51 -68 -69q0 -35 -55 -55q-7 -55 -41 -55zM537 1355h-13q-96 0 -138 110q28 45 28 82h68l42 -27
q26 13 41 13l41 -82v-82h-41l-28 13v-27zM455 1574q-27 14 -41 14v96q104 137 123 137h28q21 0 54 -55v-13q-68 -51 -68 -69q0 -35 -55 -55q-7 -55 -41 -55z" />
    <glyph glyph-name="quotedblright" unicode="&#x201d;" horiz-adv-x="699" 
d="M142 1821h13q96 0 138 -110q-28 -45 -28 -82h-68l-42 27q-26 -13 -41 -13l-41 82v82h41l28 -13v27zM224 1602q27 -14 41 -14v-96q-104 -137 -123 -137h-28q-21 0 -54 55v13q68 51 68 69q0 35 55 55q7 55 41 55zM468 1821h13q96 0 138 -110q-28 -45 -28 -82h-68l-42 27
q-26 -13 -41 -13l-41 82v82h41l28 -13v27zM550 1602q27 -14 41 -14v-96q-104 -137 -123 -137h-28q-21 0 -54 55v13q68 51 68 69q0 35 55 55q7 55 41 55z" />
    <glyph glyph-name="bullet" unicode="&#xb7;" horiz-adv-x="702" 
d="M375 850h28q219 -53 219 -164q-50 0 -68 -192q-83 -96 -220 -96q0 -28 -68 -28h-28q-37 29 -123 55q-41 53 -41 123v14l13 69q-27 0 -27 27q0 124 261 124q36 67 54 68z" />
    <glyph glyph-name="bullet" unicode="&#x2219;" horiz-adv-x="702" 
d="M375 850h28q219 -53 219 -164q-50 0 -68 -192q-83 -96 -220 -96q0 -28 -68 -28h-28q-37 29 -123 55q-41 53 -41 123v14l13 69q-27 0 -27 27q0 124 261 124q36 67 54 68z" />
    <glyph glyph-name="bullet" unicode="&#x2022;" horiz-adv-x="702" 
d="M375 850h28q219 -53 219 -164q-50 0 -68 -192q-83 -96 -220 -96q0 -28 -68 -28h-28q-37 29 -123 55q-41 53 -41 123v14l13 69q-27 0 -27 27q0 124 261 124q36 67 54 68z" />
    <glyph glyph-name="ellipsis" unicode="&#x2026;" horiz-adv-x="1365" 
d="M311 230l12 -7q59 -89 48 -108q-89 -154 -232 -71q-7 -13 -30 1q-49 79 -16 136q7 12 18 5l3 31l13 23q9 16 146 -21q18 23 38 11zM762 230l12 -7q59 -89 48 -108q-89 -154 -231 -71q-7 -13 -31 1q-49 79 -16 136q7 12 18 5l3 31l13 23q9 16 146 -21q18 23 38 11z
M1213 230l12 -7q60 -89 49 -108q-89 -154 -232 -71q-7 -13 -31 1q-49 79 -16 136q7 12 18 5l3 31l13 23q9 16 147 -21q17 23 37 11z" />
    <glyph glyph-name="Euro" unicode="&#x20ac;" horiz-adv-x="1813" 
d="M842 1714h13q78 -54 137 -55q27 14 41 14q55 -21 55 -41v-14q0 -25 -150 -96q0 -55 -42 -55l-96 55l-13 -55q27 -45 27 -82v-28q0 -27 -27 -27l-83 14q-27 -5 -27 -28q82 -37 82 -55v-82l-41 -55q172 0 220 -96h13q69 19 69 55h41v-68q-47 -46 -69 -110q-10 0 -82 -14
q0 21 -137 69q0 13 -14 13q-39 0 -82 -109l27 -41v-14q-27 -97 -27 -110q41 0 41 -27l28 14h13q14 0 14 -14l27 14q31 0 55 -14l28 14l68 -14h124q0 -28 41 -28l13 -137q-54 0 -54 -55h-55q-36 55 -69 55q0 24 -27 69q-178 -41 -178 -124v-41q115 -80 246 -137
q47 -96 69 -96h14q0 41 27 41h27q61 -96 83 -96q27 -4 27 -27v-14q-53 -82 -151 -82q-26 14 -41 14q-27 -96 -55 -96h-13l-69 13v96q0 28 -27 28h-55l-82 -14q-69 18 -69 41v28l69 82v55q0 27 -28 27q-73 -150 -110 -164h-27q-27 0 -55 178q-137 0 -137 192h-41
q-34 0 -41 -55h-14l-41 27q-24 -13 -55 -13q0 13 -14 13q0 -27 -27 -27h-27q-21 0 -69 82v96l69 83q24 13 54 13h69l55 -55h41l-14 55q28 88 28 110q-55 28 -55 69l-165 -28q-55 14 -55 82q0 28 14 28l-14 68v55q0 36 110 55l69 -14q58 0 68 137q82 0 82 28l-13 55
q0 13 55 82l-14 82q0 41 178 55q0 27 14 27l-14 28v27q14 41 82 41h14q14 0 14 -13q68 41 110 41zM1308 1673h55q13 0 13 -14l28 14h82q41 0 41 -69h41q96 0 96 -137q44 0 55 -123q-86 -110 -96 -110q-182 0 -288 151q-14 0 -14 14v54l42 55q-151 45 -151 82v28q22 55 96 55
zM403 1001v-28h96q0 55 41 55v41q-38 0 -137 -68zM1664 411h28q19 0 41 -41q0 -67 -83 -137q0 -67 -137 -96q0 -31 -54 -55h-28q-20 0 -41 41q27 138 137 138h55q0 41 14 41l-14 27v41q14 41 82 41z" />
  </font>
</defs>
</svg>
